<?xml version="1.0" encoding="UTF-8"?>
<svg version="1.1" xmlns="http://www.w3.org/2000/svg" width="554" height="590">
<path d="M0 0 C182.82 0 365.64 0 554 0 C554 194.7 554 389.4 554 590 C371.18 590 188.36 590 0 590 C0 395.3 0 200.6 0 0 Z " fill="#1E1E1E" transform="translate(0,0)"/>
<path d="M0 0 C0.33 0 0.66 0 1 0 C2.99271317 12.46973883 3.64404918 24.8934915 4.125 37.5 C4.16669312 38.54927673 4.20838623 39.59855347 4.25134277 40.67962646 C4.89566311 57.16012291 5.21064494 73.63230129 5.25 90.125 C5.25517639 91.13377197 5.26035278 92.14254395 5.26568604 93.18188477 C5.27735241 96.04067325 5.27428655 98.89902117 5.265625 101.7578125 C5.27156174 103.01242783 5.27156174 103.01242783 5.27761841 104.29238892 C5.23846783 109.23278538 4.57756094 113.31196515 3 118 C3.99 118 4.98 118 6 118 C6 117.01 6 116.02 6 115 C6.928125 114.566875 7.85625 114.13375 8.8125 113.6875 C12.88042321 111.53389359 14.54464728 110.36605815 16 106 C17.8125 104.46484375 17.8125 104.46484375 20 102.9375 C23.01628184 100.92046147 23.01628184 100.92046147 25 98 C25.66 98 26.32 98 27 98 C27 97.34 27 96.68 27 96 C28.93359375 94.34375 28.93359375 94.34375 31.4375 92.5 C34.74856792 90.20089737 34.74856792 90.20089737 37 87 C37.66 87 38.32 87 39 87 C39 86.34 39 85.68 39 85 C44.41176471 81 44.41176471 81 47 81 C45.11190509 86.83592972 41.63999791 90.69469554 36.9375 94.4375 C34.37113335 96.67624537 33.34411135 97.87969018 31.8125 100.75 C30 104 30 104 27 105 C26.67 105.66 26.34 106.32 26 107 C25.34 107 24.68 107 24 107 C24 107.66 24 108.32 24 109 C21.625 111.625 21.625 111.625 19 114 C18.34 114 17.68 114 17 114 C17 114.66 17 115.32 17 116 C16.360625 116.474375 15.72125 116.94875 15.0625 117.4375 C12.71627037 118.9091365 12.71627037 118.9091365 12 122 C17.34718943 123.059319 22.61387581 123.28376607 28.04443359 123.48071289 C29.53804413 123.53945335 29.53804413 123.53945335 31.06182861 123.59938049 C34.34056933 123.72742745 37.61948846 123.85007004 40.8984375 123.97265625 C43.17674018 124.06057466 45.45502985 124.14883107 47.73330688 124.2374115 C53.72051628 124.46928871 59.70789133 124.69657882 65.6953125 124.9229126 C71.80870047 125.15482141 77.92192056 125.39107012 84.03515625 125.62695312 C96.02327721 126.08888193 108.01157767 126.5459647 120 127 C119.67 124.69 119.34 122.38 119 120 C120.32 120.33 121.64 120.66 123 121 C123 122.98 123 124.96 123 127 C124.65 127.33 126.3 127.66 128 128 C127.67 128.66 127.34 129.32 127 130 C124.81494141 130.39477539 124.81494141 130.39477539 121.8515625 130.59765625 C120.16027222 130.71584717 120.16027222 130.71584717 118.43481445 130.83642578 C117.17757568 130.91103027 115.92033691 130.98563477 114.625 131.0625 C113.97220062 131.10324646 113.31940125 131.14399292 112.64682007 131.18597412 C78.81937704 133.27931294 44.87677519 133.16465942 11 133 C11.36490366 135.47069112 11.36490366 135.47069112 12 138 C13.79932579 139.06716704 13.79932579 139.06716704 16 140 C19.41580577 143.08255642 21.65272649 146.08787748 24 150 C25.62339805 151.70884005 27.29319053 153.37446717 29 155 C30.7041054 156.62836738 32.38025441 158.28769752 34 160 C34 160.66 34 161.32 34 162 C34.61875 162.2475 35.2375 162.495 35.875 162.75 C38.35068687 164.20628639 38.95125002 165.37812506 40 168 C40.66 168 41.32 168 42 168 C42 168.66 42 169.32 42 170 C42.66 170 43.32 170 44 170 C44.33 170.99 44.66 171.98 45 173 C45.804375 173.804375 46.60875 174.60875 47.4375 175.4375 C49.64973661 177.64973661 50.84198526 179.15760017 52 182 C48.12401658 181.43364626 46.19058297 179.63666633 43.375 177 C40.41969243 174.16503895 40.41969243 174.16503895 37 172 C37 171.34 37 170.68 37 170 C36.34 170 35.68 170 35 170 C34.525625 169.360625 34.05125 168.72125 33.5625 168.0625 C32.0908635 165.71627037 32.0908635 165.71627037 29 165 C28.7834375 164.0409375 28.7834375 164.0409375 28.5625 163.0625 C28.376875 162.381875 28.19125 161.70125 28 161 C26.67532254 160.3162955 25.34136367 159.65035814 24 159 C23.67 158.319375 23.34 157.63875 23 156.9375 C22.67 156.298125 22.34 155.65875 22 155 C21.39285156 154.87496094 20.78570312 154.74992188 20.16015625 154.62109375 C17.29313433 153.79676014 16.31136797 152.41388571 14.4375 150.125 C11.99147926 147.15433103 11.99147926 147.15433103 9.28515625 144.4296875 C8 143 8 143 8 140 C7.01 140 6.02 140 5 140 C5.01047363 141.2883374 5.02094727 142.5766748 5.03173828 143.90405273 C5.21291993 168.49964094 5.12708866 193.04839474 4.0625 217.625 C3.99715057 219.1385054 3.99715057 219.1385054 3.93048096 220.68258667 C3.39792326 232.79499062 2.74862308 244.89910746 2 257 C1.34 257 0.68 257 0 257 C-0.66 252.71 -1.32 248.42 -2 244 C-3.98 243.67 -5.96 243.34 -8 243 C-8 242.01 -8 241.02 -8 240 C-6.35 240 -4.7 240 -3 240 C-3.1201604 233.58512535 -3.24484431 227.17034874 -3.37231445 220.75561523 C-3.41496215 218.58473585 -3.45666678 216.41383768 -3.49731445 214.24291992 C-3.73176042 201.7593958 -4.08500932 189.29461281 -4.66622925 176.82223511 C-4.98177216 169.89848511 -5.12672636 162.99400691 -5.0625 156.0625 C-5.05798828 155.06927734 -5.05347656 154.07605469 -5.04882812 153.05273438 C-5.03747069 150.70174431 -5.021363 148.35091625 -5 146 C-7.31 146.33 -9.62 146.66 -12 147 C-12 147.66 -12 148.32 -12 149 C-13.6796875 150.7265625 -13.6796875 150.7265625 -15.875 152.625 C-16.59429687 153.25664062 -17.31359375 153.88828125 -18.0546875 154.5390625 C-20 156 -20 156 -22 156 C-22.268125 156.598125 -22.53625 157.19625 -22.8125 157.8125 C-24.47481079 160.87465145 -26.11837452 162.52140331 -29.1875 164.1875 C-34.2954634 167.47929863 -38.63469362 171.95204043 -42 177 C-44.95264073 179.04413589 -46.36672806 180 -50 180 C-46.69105514 174.20934649 -42.6981054 169.6981054 -38 165 C-37.360625 164.175 -36.72125 163.35 -36.0625 162.5 C-34.3671572 160.44503903 -32.85492025 158.97075073 -30.8125 157.3125 C-27.98352767 155.30609749 -27.98352767 155.30609749 -27 153 C-26.01 152.67 -25.02 152.34 -24 152 C-23.03497758 150.60238132 -22.07780075 149.19785919 -21.18359375 147.75390625 C-19.42767009 145.15189395 -17.30480424 142.90987586 -15.171875 140.61328125 C-13.70614716 138.92779306 -13.70614716 138.92779306 -14 136 C-17.43376268 134.28311866 -21.38114365 134.75490998 -25.1640625 134.68359375 C-26.07127045 134.66281265 -26.97847839 134.64203156 -27.91317749 134.62062073 C-30.8170398 134.55512865 -33.72099405 134.49624186 -36.625 134.4375 C-38.59115542 134.39431445 -40.55730147 134.35070015 -42.5234375 134.30664062 C-47.34886362 134.19944761 -52.1743824 134.09817919 -57 134 C-57 134.99 -57 135.98 -57 137 C-58.32 137 -59.64 137 -61 137 C-61 135.35 -61 133.7 -61 132 C-62.80017578 131.96241577 -62.80017578 131.96241577 -64.63671875 131.92407227 C-69.11712118 131.82943466 -73.59738879 131.72935475 -78.07763672 131.62768555 C-80.01152376 131.58454872 -81.94544369 131.54286004 -83.87939453 131.50268555 C-86.66969691 131.4444644 -89.45983693 131.3809233 -92.25 131.31640625 C-93.10553467 131.29969376 -93.96106934 131.28298126 -94.8425293 131.26576233 C-99.96209877 131.14127422 -104.92865741 130.71826979 -110 130 C-110 129.34 -110 128.68 -110 128 C-103.70808027 124.85404014 -94.43858285 125.75992302 -87.5 125.5 C-86.47914307 125.46011963 -85.45828613 125.42023926 -84.40649414 125.37915039 C-66.61085337 124.72411963 -48.80298382 124.39081866 -31 124 C-30.34 122.35 -29.68 120.7 -29 119 C-27.68 119 -26.36 119 -25 119 C-25 120.65 -25 122.3 -25 124 C-20.38 124 -15.76 124 -11 124 C-11.33 123.01 -11.66 122.02 -12 121 C-13.485 120.505 -13.485 120.505 -15 120 C-17.32265612 117.41927097 -18 116.54823932 -18 113 C-18.66 113 -19.32 113 -20 113 C-20 112.34 -20 111.68 -20 111 C-20.66 111 -21.32 111 -22 111 C-25 107.53846154 -25 107.53846154 -25 105 C-25.54140625 104.8040625 -26.0828125 104.608125 -26.640625 104.40625 C-30.05552093 102.37088157 -32.2362472 99.54157491 -34.75 96.5 C-35.25660156 95.90574219 -35.76320313 95.31148438 -36.28515625 94.69921875 C-40 90.26343497 -40 90.26343497 -40 88 C-40.556875 87.773125 -41.11375 87.54625 -41.6875 87.3125 C-44.64176591 85.63575448 -46.66847851 83.45423315 -49 81 C-49.99 80.01 -49.99 80.01 -51 79 C-51 78.01 -51 77.02 -51 76 C-49.68 76.33 -48.36 76.66 -47 77 C-47 77.66 -47 78.32 -47 79 C-46.360625 79.103125 -45.72125 79.20625 -45.0625 79.3125 C-44.381875 79.539375 -43.70125 79.76625 -43 80 C-42.67 80.99 -42.34 81.98 -42 83 C-39.99878825 85.36506843 -39.03200339 85.9893322 -36 87 C-36 87.66 -36 88.32 -36 89 C-34.824375 89.37125 -34.824375 89.37125 -33.625 89.75 C-30.49469091 91.24062337 -30.45996121 91.99419751 -29 95 C-27.03814584 96.71140469 -25.03697617 98.37873325 -23 100 C-21.125 101.6875 -21.125 101.6875 -20 103 C-20 103.66 -20 104.32 -20 105 C-19.01 105 -18.02 105 -17 105 C-13 109.34285714 -13 109.34285714 -13 112 C-12.38125 112.2475 -11.7625 112.495 -11.125 112.75 C-8.64931313 114.20628639 -8.04874998 115.37812506 -7 118 C-6.01 118 -5.02 118 -4 118 C-3.98969254 117.02804687 -3.97938507 116.05609375 -3.96876526 115.0546875 C-3.87081262 105.87424652 -3.76805897 96.69387002 -3.66066074 87.51353455 C-3.60560527 82.79436466 -3.55221409 78.07518842 -3.50268555 73.35595703 C-3.4547844 68.79771841 -3.40243423 64.23955022 -3.34705925 59.68139648 C-3.32675176 57.94638839 -3.30802043 56.21136108 -3.29092598 54.47631836 C-3.26662288 52.0375274 -3.23660675 49.59886632 -3.20532227 47.16015625 C-3.1995668 46.45021011 -3.19381134 45.74026398 -3.18788147 45.00880432 C-3.11907174 40.25891553 -2.63864078 35.69793399 -2 31 C-1.87934373 29.1578151 -1.78293634 27.31376578 -1.71875 25.46875 C-1.68136719 24.49292969 -1.64398438 23.51710937 -1.60546875 22.51171875 C-1.57066406 21.51785156 -1.53585937 20.52398437 -1.5 19.5 C-1.2702698 12.93992651 -0.92876259 6.50133811 0 0 Z " fill="#F6F6F5" transform="translate(277,204)"/>
<path d="M0 0 C1.32 0.33 2.64 0.66 4 1 C4 1.66 4 2.32 4 3 C4.639375 3.103125 5.27875 3.20625 5.9375 3.3125 C6.618125 3.539375 7.29875 3.76625 8 4 C8.495 5.485 8.495 5.485 9 7 C11.00121175 9.36506843 11.96799661 9.9893322 15 11 C15 11.66 15 12.32 15 13 C15.78375 13.2475 16.5675 13.495 17.375 13.75 C20.50530909 15.24062337 20.54003879 15.99419751 22 19 C23.96185416 20.71140469 25.96302383 22.37873325 28 24 C29.875 25.6875 29.875 25.6875 31 27 C31 27.66 31 28.32 31 29 C31.99 29 32.98 29 34 29 C38 33.34285714 38 33.34285714 38 36 C38.928125 36.37125 38.928125 36.37125 39.875 36.75 C42.35068687 38.20628639 42.95125002 39.37812506 44 42 C43.01 42 42.02 42 41 42 C41 41.01 41 40.02 41 39 C40.01 39.495 40.01 39.495 39 40 C39.495 40.8353125 39.495 40.8353125 40 41.6875 C41.1309601 44.30284522 41.15662974 46.1806646 41 49 C39.02 49 37.04 49 35 49 C35 49.66 35 50.32 35 51 C36.65 51 38.3 51 40 51 C40 51.99 40 52.98 40 54 C39.01 54.495 39.01 54.495 38 55 C39.65 55.33 41.3 55.66 43 56 C43 57.32 43 58.64 43 60 C42.34 60 41.68 60 41 60 C41 61.32 41 62.64 41 64 C41.99 63.34 42.98 62.68 44 62 C45.32 62 46.64 62 48 62 C49.01015491 66.16892555 49.13596231 70.18796343 49.11352539 74.45239258 C49.11367142 75.1846405 49.11381744 75.91688843 49.1139679 76.67132568 C49.11327413 79.07909155 49.10550692 81.48677898 49.09765625 83.89453125 C49.09579017 85.56890318 49.09436716 87.24327565 49.09336853 88.91764832 C49.08955835 93.31527221 49.0797409 97.71286284 49.06866455 102.11047363 C49.05841816 106.60163931 49.053864 111.09281037 49.04882812 115.58398438 C49.03811726 124.38933814 49.02105888 133.19466493 49 142 C50.32 142.33 51.64 142.66 53 143 C52.98839844 142.23558594 52.97679687 141.47117187 52.96484375 140.68359375 C52.89227265 132.06836707 53.33511636 123.58412275 54 115 C54.33 115 54.66 115 55 115 C55.3561021 137.07285153 54.32839723 158.97545653 53 181 C52.34 181 51.68 181 51 181 C50.34 176.71 49.68 172.42 49 168 C47.02 167.67 45.04 167.34 43 167 C43 166.01 43 165.02 43 164 C44.65 164 46.3 164 48 164 C47.8798396 157.58512535 47.75515569 151.17034874 47.62768555 144.75561523 C47.58503785 142.58473585 47.54333322 140.41383768 47.50268555 138.24291992 C47.26823958 125.7593958 46.91499068 113.29461281 46.33377075 100.82223511 C46.01822784 93.89848511 45.87327364 86.99400691 45.9375 80.0625 C45.94201172 79.06927734 45.94652344 78.07605469 45.95117188 77.05273438 C45.96252931 74.70174431 45.978637 72.35091625 46 70 C42.535 70.495 42.535 70.495 39 71 C39 71.66 39 72.32 39 73 C37.3203125 74.7265625 37.3203125 74.7265625 35.125 76.625 C34.40570313 77.25664062 33.68640625 77.88828125 32.9453125 78.5390625 C31 80 31 80 29 80 C28.5978125 80.8971875 28.5978125 80.8971875 28.1875 81.8125 C26.52518921 84.87465145 24.88162548 86.52140331 21.8125 88.1875 C16.7045366 91.47929863 12.36530638 95.95204043 9 101 C6.04735927 103.04413589 4.63327194 104 1 104 C4.30894486 98.20934649 8.3018946 93.6981054 13 89 C13.639375 88.175 14.27875 87.35 14.9375 86.5 C16.6328428 84.44503903 18.14507975 82.97075073 20.1875 81.3125 C23.01647233 79.30609749 23.01647233 79.30609749 24 77 C24.99 76.67 25.98 76.34 27 76 C27.96502242 74.60238132 28.92219925 73.19785919 29.81640625 71.75390625 C31.57232991 69.15189395 33.69519576 66.90987586 35.828125 64.61328125 C37.29385284 62.92779306 37.29385284 62.92779306 37 60 C33.56623732 58.28311866 29.61885635 58.75490998 25.8359375 58.68359375 C24.47512558 58.6524221 24.47512558 58.6524221 23.08682251 58.62062073 C20.1829602 58.55512865 17.27900595 58.49624186 14.375 58.4375 C12.40884458 58.39431445 10.44269853 58.35070015 8.4765625 58.30664062 C3.65113638 58.19944761 -1.1743824 58.09817919 -6 58 C-6 58.99 -6 59.98 -6 61 C-7.32 61 -8.64 61 -10 61 C-10 59.35 -10 57.7 -10 56 C-11.80017578 55.96241577 -11.80017578 55.96241577 -13.63671875 55.92407227 C-18.11712118 55.82943466 -22.59738879 55.72935475 -27.07763672 55.62768555 C-29.01152376 55.58454872 -30.94544369 55.54286004 -32.87939453 55.50268555 C-35.66969691 55.4444644 -38.45983693 55.3809233 -41.25 55.31640625 C-42.533302 55.29133751 -42.533302 55.29133751 -43.8425293 55.26576233 C-48.96209877 55.14127422 -53.92865741 54.71826979 -59 54 C-59 53.34 -59 52.68 -59 52 C-52.70808027 48.85404014 -43.43858285 49.75992302 -36.5 49.5 C-34.9687146 49.44017944 -34.9687146 49.44017944 -33.40649414 49.37915039 C-15.61085337 48.72411963 2.19701618 48.39081866 20 48 C20.66 46.35 21.32 44.7 22 43 C23.32 43 24.64 43 26 43 C26 44.65 26 46.3 26 48 C30.62 48 35.24 48 40 48 C39.67 47.01 39.34 46.02 39 45 C37.515 44.505 37.515 44.505 36 44 C33.67734388 41.41927097 33 40.54823932 33 37 C32.34 37 31.68 37 31 37 C31 36.34 31 35.68 31 35 C30.34 35 29.68 35 29 35 C26 31.53846154 26 31.53846154 26 29 C25.45859375 28.8040625 24.9171875 28.608125 24.359375 28.40625 C20.94447907 26.37088157 18.7637528 23.54157491 16.25 20.5 C15.74339844 19.90574219 15.23679687 19.31148438 14.71484375 18.69921875 C11 14.26343497 11 14.26343497 11 12 C10.443125 11.773125 9.88625 11.54625 9.3125 11.3125 C6.35823409 9.63575448 4.33152149 7.45423315 2 5 C1.34 4.34 0.68 3.68 0 3 C0 2.01 0 1.02 0 0 Z " fill="#E8E8E6" transform="translate(226,280)"/>
<path d="M0 0 C17.01473738 -0.19733587 33.99848339 0.40793088 51 1 C51 3.31 51 5.62 51 8 C51.99 7.34 52.98 6.68 54 6 C55.32 6 56.64 6 58 6 C59.01015491 10.16892555 59.13596231 14.18796343 59.11352539 18.45239258 C59.11367142 19.1846405 59.11381744 19.91688843 59.1139679 20.67132568 C59.11327413 23.07909155 59.10550692 25.48677898 59.09765625 27.89453125 C59.09579017 29.56890318 59.09436716 31.24327565 59.09336853 32.91764832 C59.08955835 37.31527221 59.0797409 41.71286284 59.06866455 46.11047363 C59.05841816 50.60163931 59.053864 55.09281037 59.04882812 59.58398438 C59.03811726 68.38933814 59.02105888 77.19466493 59 86 C60.32 86.33 61.64 86.66 63 87 C62.98839844 86.23558594 62.97679687 85.47117187 62.96484375 84.68359375 C62.89227265 76.06836707 63.33511636 67.58412275 64 59 C64.33 59 64.66 59 65 59 C65.3561021 81.07285153 64.32839723 102.97545653 63 125 C62.34 125 61.68 125 61 125 C60.34 120.71 59.68 116.42 59 112 C56.03 111.505 56.03 111.505 53 111 C53 110.01 53 109.02 53 108 C54.65 108 56.3 108 58 108 C57.8798396 101.58512535 57.75515569 95.17034874 57.62768555 88.75561523 C57.58503785 86.58473585 57.54333322 84.41383768 57.50268555 82.24291992 C57.26823958 69.7593958 56.91499068 57.29461281 56.33377075 44.82223511 C56.01822784 37.89848511 55.87327364 30.99400691 55.9375 24.0625 C55.94201172 23.06927734 55.94652344 22.07605469 55.95117188 21.05273438 C55.96252931 18.70174431 55.978637 16.35091625 56 14 C53.69 14.33 51.38 14.66 49 15 C49 15.66 49 16.32 49 17 C47.3203125 18.7265625 47.3203125 18.7265625 45.125 20.625 C44.40570313 21.25664062 43.68640625 21.88828125 42.9453125 22.5390625 C41 24 41 24 39 24 C38.731875 24.598125 38.46375 25.19625 38.1875 25.8125 C36.52518921 28.87465145 34.88162548 30.52140331 31.8125 32.1875 C26.7045366 35.47929863 22.36530638 39.95204043 19 45 C16.04735927 47.04413589 14.63327194 48 11 48 C14.30894486 42.20934649 18.3018946 37.6981054 23 33 C23.639375 32.175 24.27875 31.35 24.9375 30.5 C26.6328428 28.44503903 28.14507975 26.97075073 30.1875 25.3125 C33.01647233 23.30609749 33.01647233 23.30609749 34 21 C34.99 20.67 35.98 20.34 37 20 C37.96502242 18.60238132 38.92219925 17.19785919 39.81640625 15.75390625 C41.57232991 13.15189395 43.69519576 10.90987586 45.828125 8.61328125 C47.29385284 6.92779306 47.29385284 6.92779306 47 4 C43.56623732 2.28311866 39.61885635 2.75490998 35.8359375 2.68359375 C34.92872955 2.66281265 34.02152161 2.64203156 33.08682251 2.62062073 C30.1829602 2.55512865 27.27900595 2.49624186 24.375 2.4375 C22.40884458 2.39431445 20.44269853 2.35070015 18.4765625 2.30664062 C13.65113638 2.19944761 8.8256176 2.09817919 4 2 C4 2.99 4 3.98 4 5 C2.68 5 1.36 5 0 5 C0 3.35 0 1.7 0 0 Z " fill="#BEBDBB" transform="translate(216,336)"/>
<path d="M0 0 C1.32 0.33 2.64 0.66 4 1 C4 2.98 4 4.96 4 7 C5.65 7.33 7.3 7.66 9 8 C8.67 8.66 8.34 9.32 8 10 C5.81494141 10.39477539 5.81494141 10.39477539 2.8515625 10.59765625 C1.72395508 10.6764502 0.59634766 10.75524414 -0.56542969 10.83642578 C-1.82258789 10.91103027 -3.07974609 10.98563477 -4.375 11.0625 C-5.02746704 11.10324646 -5.67993408 11.14399292 -6.35217285 11.18597412 C-39.84664462 13.25991967 -73.45629619 13.16775723 -107 13 C-104.66785852 11.79371992 -102.50357861 10.8345262 -100 10 C-98.29144978 6.99992729 -98.29144978 6.99992729 -97 4 C-84.56208408 3.91198846 -72.16974313 4.1635416 -59.7421875 4.65625 C-57.9743054 4.72380913 -56.20641165 4.7910638 -54.43850708 4.85803223 C-49.85191047 5.03257048 -45.26548089 5.21116034 -40.67907715 5.39068604 C-35.97234584 5.57417295 -31.26546357 5.75370125 -26.55859375 5.93359375 C-17.37224659 6.28525665 -8.1860715 6.6412134 1 7 C0.505 3.535 0.505 3.535 0 0 Z " fill="#A5A4A5" transform="translate(396,324)"/>
<path d="M0 0 C1.65 0.33 3.3 0.66 5 1 C5 2.98 5 4.96 5 7 C21.5 7 38 7 55 7 C55 7.66 55 8.32 55 9 C56.32 9 57.64 9 59 9 C59 9.66 59 10.32 59 11 C56.35257807 12.32371096 54.10865525 12.30100255 51.15234375 12.5 C49.99025391 12.5825 48.82816406 12.665 47.63085938 12.75 C45.16473134 12.91692987 42.69858543 13.08359571 40.23242188 13.25 C38.4912207 13.37375 38.4912207 13.37375 36.71484375 13.5 C35.10790649 13.60828125 35.10790649 13.60828125 33.46850586 13.71875 C31.05861121 13.73388384 31.05861121 13.73388384 30 15 C28.33382885 15.04063832 26.66611905 15.042721 25 15 C25 16.65 25 18.3 25 20 C23.35 20 21.7 20 20 20 C20 18.35 20 16.7 20 15 C21.32 15 22.64 15 24 15 C24 14.34 24 13.68 24 13 C23.40896233 13.05956312 22.81792465 13.11912624 22.20897675 13.18049431 C6.11081472 14.76209745 -9.8009644 15.27142501 -25.96875 15.1953125 C-28.35583374 15.19156882 -30.74291904 15.18872829 -33.13000488 15.18673706 C-39.32426416 15.17920704 -45.51842524 15.15965388 -51.71264648 15.1373291 C-58.06883416 15.11663759 -64.42503815 15.10768622 -70.78125 15.09765625 C-83.18754245 15.07639471 -95.59376297 15.0423923 -108 15 C-108 14.67 -108 14.34 -108 14 C-106.9892038 13.97938507 -105.97840759 13.95877014 -104.9369812 13.93753052 C-95.26294144 13.73931782 -85.58908231 13.53367328 -75.91534233 13.32132149 C-70.94574391 13.2124556 -65.97612166 13.10593007 -61.00634766 13.00537109 C-37.95360704 12.53713618 -14.98766489 11.8660191 8 10 C7.35160156 9.731875 6.70320313 9.46375 6.03515625 9.1875 C5.02775391 8.5996875 5.02775391 8.5996875 4 8 C3.62633887 6.00714063 3.29259485 4.00636471 3 2 C2.01 1.34 1.02 0.68 0 0 Z " fill="#4C4B4C" transform="translate(396,323)"/>
<path d="M0 0 C0.33 0 0.66 0 1 0 C1.19658808 1.41543415 1.38187546 2.83244031 1.5625 4.25 C1.66691406 5.03890625 1.77132813 5.8278125 1.87890625 6.640625 C2.00027349 9.00532874 1.69633257 10.7511037 1 13 C1.99 13.33 2.98 13.66 4 14 C5.07676279 20.58619906 5.34214449 27.13184028 5.60546875 33.79296875 C5.81763712 38.64357657 6.19104585 43.15777188 7.52568722 47.84698105 C8.03530103 50.1602398 8.12300767 52.21340435 8.12025452 54.58111572 C8.12162918 55.49534302 8.12300385 56.40957031 8.12442017 57.35150146 C8.12082489 58.34700012 8.11722961 59.34249878 8.11352539 60.36816406 C8.11367142 61.42213379 8.11381744 62.47610352 8.1139679 63.56201172 C8.1132711 67.0465704 8.10548953 70.53107566 8.09765625 74.015625 C8.09579124 76.43129446 8.09436773 78.8469643 8.09336853 81.26263428 C8.08954986 87.62155196 8.07972508 93.98044681 8.06866455 100.33935547 C8.05843649 106.82779634 8.05386791 113.31624089 8.04882812 119.8046875 C8.03810226 132.53646807 8.02122575 145.26823282 8 158 C11.35594194 156.7367158 13.63290296 155.74084921 16 153 C16.66 153.33 17.32 153.66 18 154 C14.82679218 157.53586014 12.83256305 159.58578031 8 160 C8 160.99 8 161.98 8 163 C7.01 163 6.02 163 5 163 C5.16153564 162.03562012 5.32307129 161.07124023 5.48950195 160.07763672 C6.12002913 155.63342477 6.16154623 151.24040948 6.16796875 146.7578125 C6.17206757 145.85675781 6.17616638 144.95570313 6.1803894 144.02734375 C6.1900114 141.05985779 6.18990094 138.09249946 6.1875 135.125 C6.18789276 134.10565369 6.18828552 133.08630737 6.18869019 132.03607178 C6.18108815 115.38307923 5.75853605 98.76279645 5.0625 82.125 C4.99728653 80.54866791 4.99728653 80.54866791 4.93075562 78.94049072 C4.80417502 75.94183499 4.67147117 72.94354033 4.53515625 69.9453125 C4.49655487 69.06907227 4.45795349 68.19283203 4.41818237 67.29003906 C4.1552544 61.82548521 3.65344403 56.43203131 3 51 C1.77313987 53.45372026 1.81083259 55.20291673 1.71875 57.9453125 C1.68136719 58.94046875 1.64398438 59.935625 1.60546875 60.9609375 C1.57066406 62.00507813 1.53585937 63.04921875 1.5 64.125 C1.27210094 70.81003918 0.95314856 77.37561753 0 84 C-0.33 84 -0.66 84 -1 84 C-1.0232884 74.8196187 -1.0409985 65.63924775 -1.05181217 56.45884323 C-1.05700519 52.19488218 -1.06403687 47.93094151 -1.07543945 43.66699219 C-1.08639676 39.54320326 -1.09230373 35.41943379 -1.09487724 31.29563141 C-1.09670855 29.73137354 -1.100284 28.16711659 -1.10573006 26.60286713 C-1.13549822 17.68880729 -0.94142563 8.87612727 0 0 Z " fill="#626262" transform="translate(275,159)"/>
<path d="M0 0 C1.65 0.33 3.3 0.66 5 1 C5 1.66 5 2.32 5 3 C5.66 3 6.32 3 7 3 C7.33 3.99 7.66 4.98 8 6 C8.66 6 9.32 6 10 6 C9.67 4.02 9.34 2.04 9 0 C13.57841187 3.62671952 16.83198138 7.03677083 20 12 C21.62449243 13.70779973 23.29220027 15.37550757 25 17 C26.7041054 18.62836738 28.38025441 20.28769752 30 22 C30 22.66 30 23.32 30 24 C30.61875 24.2475 31.2375 24.495 31.875 24.75 C34.35068687 26.20628639 34.95125002 27.37812506 36 30 C36.66 30 37.32 30 38 30 C38 30.66 38 31.32 38 32 C38.66 32 39.32 32 40 32 C40.33 32.99 40.66 33.98 41 35 C41.804375 35.804375 42.60875 36.60875 43.4375 37.4375 C45.64973661 39.64973661 46.84198526 41.15760017 48 44 C44.12401658 43.43364626 42.19058297 41.63666633 39.375 39 C36.41969243 36.16503895 36.41969243 36.16503895 33 34 C33 33.34 33 32.68 33 32 C32.34 32 31.68 32 31 32 C30.525625 31.360625 30.05125 30.72125 29.5625 30.0625 C28.0908635 27.71627037 28.0908635 27.71627037 25 27 C24.7834375 26.0409375 24.7834375 26.0409375 24.5625 25.0625 C24.376875 24.381875 24.19125 23.70125 24 23 C22.67532254 22.3162955 21.34136367 21.65035814 20 21 C19.67 20.319375 19.34 19.63875 19 18.9375 C18.67 18.298125 18.34 17.65875 18 17 C17.08927734 16.81244141 17.08927734 16.81244141 16.16015625 16.62109375 C13.29313433 15.79676014 12.31136797 14.41388571 10.4375 12.125 C7.99147926 9.15433103 7.99147926 9.15433103 5.28515625 6.4296875 C4 5 4 5 4 2 C3.01 2 2.02 2 1 2 C1 18.83 1 35.66 1 53 C0.34 53 -0.32 53 -1 53 C-0.98839844 53.93199219 -0.97679687 54.86398437 -0.96484375 55.82421875 C-0.90504641 64.272729 -1.20482038 72.57961582 -2 81 C-3.32 80.67 -4.64 80.34 -6 80 C-6.74436859 62.99038594 -7.15224767 46.02597388 -7 29 C-4.15468668 31.84531332 -4.59381656 33.99436614 -4.3671875 37.9765625 C-4.32562531 38.66181 -4.28406311 39.3470575 -4.24124146 40.05307007 C-4.11041466 42.24330351 -3.99256252 44.43401842 -3.875 46.625 C-3.78861346 48.10942489 -3.70138433 49.593801 -3.61328125 51.078125 C-3.39907167 54.71823458 -3.19649252 58.35888625 -3 62 C-2.67 58.7 -2.34 55.4 -2 52 C-1.34 52 -0.68 52 0 52 C-0.33 37.15 -0.66 22.3 -1 7 C-1.99 7 -2.98 7 -4 7 C-3.67 5.68 -3.34 4.36 -3 3 C-2.34 3 -1.68 3 -1 3 C-0.67 2.01 -0.34 1.02 0 0 Z " fill="#C7C6C6" transform="translate(281,342)"/>
<path d="M0 0 C0 0.33 0 0.66 0 1 C-0.69448242 1.02505615 -1.38896484 1.0501123 -2.10449219 1.07592773 C-5.31977376 1.19357951 -8.53487975 1.31552205 -11.75 1.4375 C-12.84183594 1.47681641 -13.93367188 1.51613281 -15.05859375 1.55664062 C-22.39458894 1.83879429 -29.68960535 2.32632614 -37 3 C-37 3.66 -37 4.32 -37 5 C-22.15 5.33 -7.3 5.66 8 6 C8 6.33 8 6.66 8 7 C-2.61629496 7.04691803 -13.23256415 7.08216442 -23.84894276 7.10362434 C-28.78173876 7.11393844 -33.71446242 7.12786257 -38.6472168 7.15087891 C-60.52287014 7.25035405 -82.2122837 7.22633996 -104 5 C-104.33 4.01 -104.66 3.02 -105 2 C-70.09973812 -0.88827309 -34.98962771 -0.11173614 0 0 Z " fill="#4A4A4B" transform="translate(204,329)"/>
<path d="M0 0 C0.99 0 1.98 0 3 0 C3 0.66 3 1.32 3 2 C2.34 2 1.68 2 1 2 C1.03552979 3.15556396 1.07105957 4.31112793 1.10766602 5.50170898 C1.85024361 30.44851153 2.10098258 55.35682582 1.6875 80.3125 C1.67034943 81.50962616 1.65319885 82.70675232 1.63552856 83.94015503 C1.44436371 96.69013902 1.02295271 109.28966717 -0.5378418 121.9519043 C-1.04763173 126.13010796 -1.28644691 130.29641684 -1.5 134.5 C-1.8491015 140.79652167 -2.65598322 146.84101046 -4 153 C-4.33 153 -4.66 153 -5 153 C-6.98366224 136.63478652 -7.23371805 120.47352713 -7 104 C-6.67 104 -6.34 104 -6 104 C-5.67 108.29 -5.34 112.58 -5 117 C-4.34 117 -3.68 117 -3 117 C-3.01087646 116.03239746 -3.02175293 115.06479492 -3.03295898 114.06787109 C-3.1172383 102.91798486 -2.71452307 91.81911925 -2.2020874 80.68258667 C-0.97467076 53.79668792 -0.41395994 26.90907896 0 0 Z " fill="#4D4C4D" transform="translate(282,344)"/>
<path d="M0 0 C2.41989451 55.91677869 2.41989451 55.91677869 2 78 C3.32 78.33 4.64 78.66 6 79 C5.98839844 78.23558594 5.97679687 77.47117187 5.96484375 76.68359375 C5.89227265 68.06836707 6.33511636 59.58412275 7 51 C7.33 51 7.66 51 8 51 C8.3561021 73.07285153 7.32839723 94.97545653 6 117 C5.34 117 4.68 117 4 117 C3.34 112.71 2.68 108.42 2 104 C0.02 103.67 -1.96 103.34 -4 103 C-4 102.01 -4 101.02 -4 100 C-2.35 100 -0.7 100 1 100 C0.8798396 93.58512535 0.75515569 87.17034874 0.62768555 80.75561523 C0.58503785 78.58473585 0.54333322 76.41383768 0.50268555 74.24291992 C0.26823958 61.7593958 -0.08500932 49.29461281 -0.66622925 36.82223511 C-0.98177216 29.89848511 -1.12672636 22.99400691 -1.0625 16.0625 C-1.05798828 15.06927734 -1.05347656 14.07605469 -1.04882812 13.05273438 C-1.03747069 10.70174431 -1.021363 8.35091625 -1 6 C-3.31 6.33 -5.62 6.66 -8 7 C-3.53191489 0 -3.53191489 0 0 0 Z " fill="#878788" transform="translate(273,344)"/>
<path d="M0 0 C0.33 0 0.66 0 1 0 C2.95264478 11.9386858 3.55788026 23.83635803 4.00537109 35.91308594 C4.12402059 39.09870376 4.25449859 42.28366966 4.38671875 45.46875 C4.9136894 58.65219421 5.10912093 71.80675979 5 85 C4.67 85 4.34 85 4 85 C3.16538728 80.58364847 2.82943622 76.33478437 2.71875 71.84375 C2.70034058 71.17839233 2.68193115 70.51303467 2.66296387 69.82751465 C2.58507251 67.00771535 2.51685004 64.18770205 2.44775391 61.36767578 C2.39561874 59.29709644 2.33853595 57.22669223 2.28125 55.15625 C2.25095703 53.92712891 2.22066406 52.69800781 2.18945312 51.43164062 C2.01190833 48.21570036 1.59756647 45.16202175 1 42 C0.2832547 45.93318269 -0.15906802 49.73570149 -0.29711914 53.72998047 C-0.33708511 54.83066864 -0.37705109 55.93135681 -0.41822815 57.06539917 C-0.45681442 58.23748932 -0.4954007 59.40957947 -0.53515625 60.6171875 C-0.57813339 61.82948029 -0.62111053 63.04177307 -0.66539001 64.290802 C-0.80143388 68.15208324 -0.93203832 72.01352652 -1.0625 75.875 C-1.15393796 78.49740837 -1.24573072 81.1198044 -1.33789062 83.7421875 C-1.56270665 90.16132092 -1.78306036 96.58059583 -2 103 C-2.33 103 -2.66 103 -3 103 C-3.02324295 94.79360563 -3.04097576 86.58722519 -3.05181217 78.38080597 C-3.05701495 74.56961397 -3.06406494 70.7584446 -3.07543945 66.94726562 C-3.08636135 63.26439697 -3.09229643 59.58154999 -3.09487724 55.89866638 C-3.09671481 54.49856729 -3.1003029 53.09846929 -3.10573006 51.69837952 C-3.1317725 44.69702571 -3.03526208 37.92612571 -2 31 C-1.87934373 29.1578151 -1.78293634 27.31376578 -1.71875 25.46875 C-1.68136719 24.49292969 -1.64398438 23.51710937 -1.60546875 22.51171875 C-1.55326172 21.02091797 -1.55326172 21.02091797 -1.5 19.5 C-1.2702698 12.93992651 -0.92876259 6.50133811 0 0 Z " fill="#ACACAD" transform="translate(277,204)"/>
<path d="M0 0 C1.32 0.33 2.64 0.66 4 1 C4 1.66 4 2.32 4 3 C4.9590625 3.1546875 4.9590625 3.1546875 5.9375 3.3125 C6.618125 3.539375 7.29875 3.76625 8 4 C8.33 4.99 8.66 5.98 9 7 C11.00121175 9.36506843 11.96799661 9.9893322 15 11 C15 11.66 15 12.32 15 13 C15.78375 13.2475 16.5675 13.495 17.375 13.75 C20.50530909 15.24062337 20.54003879 15.99419751 22 19 C23.96185416 20.71140469 25.96302383 22.37873325 28 24 C29.875 25.6875 29.875 25.6875 31 27 C31 27.66 31 28.32 31 29 C31.99 29 32.98 29 34 29 C38 33.34285714 38 33.34285714 38 36 C38.61875 36.2475 39.2375 36.495 39.875 36.75 C42.35068687 38.20628639 42.95125002 39.37812506 44 42 C43.01 42 42.02 42 41 42 C41 41.01 41 40.02 41 39 C40.01 39.495 40.01 39.495 39 40 C39.495 40.8353125 39.495 40.8353125 40 41.6875 C41 44 41 44 41 49 C35.72 49 30.44 49 25 49 C25 47.35 25 45.7 25 44 C23.68 44.99 22.36 45.98 21 47 C21.33 45.68 21.66 44.36 22 43 C23.32 43 24.64 43 26 43 C26 44.65 26 46.3 26 48 C30.62 48 35.24 48 40 48 C39.67 47.01 39.34 46.02 39 45 C38.01 44.67 37.02 44.34 36 44 C33.67734388 41.41927097 33 40.54823932 33 37 C32.34 37 31.68 37 31 37 C31 36.34 31 35.68 31 35 C30.34 35 29.68 35 29 35 C26 31.53846154 26 31.53846154 26 29 C25.45859375 28.8040625 24.9171875 28.608125 24.359375 28.40625 C20.94447907 26.37088157 18.7637528 23.54157491 16.25 20.5 C15.74339844 19.90574219 15.23679688 19.31148438 14.71484375 18.69921875 C11 14.26343497 11 14.26343497 11 12 C10.443125 11.773125 9.88625 11.54625 9.3125 11.3125 C6.35823409 9.63575448 4.33152149 7.45423315 2 5 C1.34 4.34 0.68 3.68 0 3 C0 2.01 0 1.02 0 0 Z " fill="#DEDDDC" transform="translate(226,280)"/>
<path d="M0 0 C3.71185352 5.56778028 3.19239205 12.08514637 3.31640625 18.578125 C3.33718735 19.50357117 3.35796844 20.42901733 3.37937927 21.38250732 C3.42252389 23.34252609 3.46358003 25.3025918 3.50268555 27.26269531 C3.56147267 30.19869208 3.62681587 33.13448241 3.69335938 36.0703125 C3.94761673 47.71522547 4.05709563 59.35249053 4 71 C2.35 70.67 0.7 70.34 -1 70 C-1.73943266 66.03004702 -2.12811792 62.27461815 -2.1328125 58.23828125 C-2.13482666 57.13202393 -2.13684082 56.0257666 -2.13891602 54.88598633 C-2.13432373 53.70673584 -2.12973145 52.52748535 -2.125 51.3125 C-2.12234131 50.08748779 -2.11968262 48.86247559 -2.11694336 47.6003418 C-2.07266336 38.83234101 -1.87780855 30.07479078 -1.5625 21.3125 C-1.52334473 20.21010986 -1.48418945 19.10771973 -1.44384766 17.97192383 C-1.20132512 11.93720127 -0.74683614 5.99351696 0 0 Z " fill="#F9F9F9" transform="translate(277,243)"/>
<path d="M0 0 C-1.88809491 5.83592972 -5.36000209 9.69469554 -10.0625 13.4375 C-12.62886665 15.67624537 -13.65588865 16.87969018 -15.1875 19.75 C-17 23 -17 23 -20 24 C-20.33 24.66 -20.66 25.32 -21 26 C-21.66 26 -22.32 26 -23 26 C-23 26.66 -23 27.32 -23 28 C-25.375 30.625 -25.375 30.625 -28 33 C-28.66 33 -29.32 33 -30 33 C-30 33.66 -30 34.32 -30 35 C-30.639375 35.474375 -31.27875 35.94875 -31.9375 36.4375 C-34.28372963 37.9091365 -34.28372963 37.9091365 -35 41 C-34.01 41.33 -33.02 41.66 -32 42 C-35.3 42 -38.6 42 -42 42 C-42 41.34 -42 40.68 -42 40 C-42.66 40 -43.32 40 -44 40 C-44 39.01 -44 38.02 -44 37 C-43.01 37 -42.02 37 -41 37 C-41 36.01 -41 35.02 -41 34 C-40.071875 33.566875 -39.14375 33.13375 -38.1875 32.6875 C-34.11957679 30.53389359 -32.45535272 29.36605815 -31 25 C-29.1875 23.46484375 -29.1875 23.46484375 -27 21.9375 C-23.98371816 19.92046147 -23.98371816 19.92046147 -22 17 C-21.34 17 -20.68 17 -20 17 C-20 16.34 -20 15.68 -20 15 C-18.06640625 13.34375 -18.06640625 13.34375 -15.5625 11.5 C-12.25143208 9.20089737 -12.25143208 9.20089737 -10 6 C-9.34 6 -8.68 6 -8 6 C-8 5.34 -8 4.68 -8 4 C-2.58823529 0 -2.58823529 0 0 0 Z " fill="#E7E7E6" transform="translate(324,285)"/>
<path d="M0 0 C1.31815201 -0.00956978 1.31815201 -0.00956978 2.66293335 -0.01933289 C3.61286163 -0.02044571 4.56278992 -0.02155853 5.54150391 -0.02270508 C7.02041611 -0.02769768 7.02041611 -0.02769768 8.52920532 -0.03279114 C10.62233006 -0.03785906 12.71546289 -0.0401995 14.80859375 -0.04003906 C17.97100722 -0.04220411 21.13305943 -0.06030136 24.29541016 -0.0793457 C34.59453888 -0.10716136 44.52845433 -0.01969999 54.64306641 2.14526367 C54.64306641 2.80526367 54.64306641 3.46526367 54.64306641 4.14526367 C47.75360072 5.20433579 41.0114831 5.27444367 34.04931641 5.24291992 C32.86204956 5.24150497 31.67478271 5.24009003 30.45153809 5.2386322 C26.68202124 5.23306178 22.91256512 5.22051472 19.14306641 5.20776367 C16.5779631 5.20274485 14.01285886 5.19818261 11.44775391 5.1940918 C5.17950424 5.18310204 -1.08871034 5.16639348 -7.35693359 5.14526367 C-7.35693359 3.82526367 -7.35693359 2.50526367 -7.35693359 1.14526367 C-4.57227513 0.21704418 -2.87731141 0.01421957 0 0 Z " fill="#F2F2F2" transform="translate(306.35693359375,329.854736328125)"/>
<path d="M0 0 C0.33 0 0.66 0 1 0 C1.02505615 0.8657666 1.0501123 1.7315332 1.07592773 2.62353516 C1.17239008 5.90762948 1.27151732 9.19162284 1.37231445 12.47558594 C1.4150104 13.8834327 1.45671445 15.29130998 1.49731445 16.69921875 C1.77092043 26.1572033 2.24516391 35.56593809 3 45 C5.09939841 41.51843538 5.3766831 38.50926564 5.6328125 34.484375 C5.71660156 33.23398437 5.80039062 31.98359375 5.88671875 30.6953125 C6.00466797 28.74238281 6.00466797 28.74238281 6.125 26.75 C6.21145217 25.41921945 6.29868332 24.08848925 6.38671875 22.7578125 C6.5988181 19.5056224 6.8029366 16.25313015 7 13 C7.33 13 7.66 13 8 13 C8.19620767 15.06168985 8.38160753 17.12440998 8.5625 19.1875 C8.66691406 20.33605469 8.77132813 21.48460937 8.87890625 22.66796875 C9 26 9 26 8.52294922 28.23974609 C7.87036866 31.68422594 7.81753801 34.99077637 7.75390625 38.49609375 C7.72097463 39.95638636 7.68776287 41.41667267 7.65429688 42.87695312 C7.60692521 45.15889289 7.56244314 47.44080589 7.52319336 49.72290039 C7.48327042 51.93922123 7.43179121 54.15504943 7.37890625 56.37109375 C7.3538501 57.69036865 7.32879395 59.00964355 7.30297852 60.36889648 C6.91775827 64.9856416 6.33580879 68.66419121 3 72 C-0.92103084 58.01778968 -0.34015894 43.96332644 -0.1875 29.5625 C-0.17242357 27.07748208 -0.15874041 24.5924553 -0.14648438 22.10742188 C-0.11371925 16.07141844 -0.06375539 10.03575155 0 4 C-1.65 4 -3.3 4 -5 4 C-5 3.34 -5 2.68 -5 2 C-2.525 2.495 -2.525 2.495 0 3 C0 2.01 0 1.02 0 0 Z " fill="#323232" transform="translate(274,445)"/>
<path d="M0 0 C0 0.99 0 1.98 0 3 C-2.83499336 3.94499779 -4.47597406 4.10610033 -7.40234375 4.0625 C-8.28365967 4.05404053 -9.16497559 4.04558105 -10.07299805 4.03686523 C-11.01828369 4.02469971 -11.96356934 4.01253418 -12.9375 4 C-20.70133033 3.94907907 -28.43247426 4.05315476 -36.1875 4.4375 C-37.02982178 4.47681641 -37.87214355 4.51613281 -38.73999023 4.55664062 C-42.02464141 4.73292493 -44.86436973 4.95478991 -48 6 C-47.505 6.99 -47.505 6.99 -47 8 C-51.16665169 8.02926019 -55.33327659 8.04688594 -59.5 8.0625 C-61.25957031 8.07506836 -61.25957031 8.07506836 -63.0546875 8.08789062 C-69.13794882 8.10497844 -74.98754144 7.94502752 -81 7 C-81 6.34 -81 5.68 -81 5 C-74.7077479 1.85387395 -65.43888507 2.76048199 -58.5 2.5 C-57.47769287 2.45939453 -56.45538574 2.41878906 -55.40209961 2.37695312 C-47.96841625 2.09987511 -40.53459249 1.91231738 -33.09765625 1.75 C-31.67584549 1.71851868 -31.67584549 1.71851868 -30.22531128 1.68640137 C-25.43156846 1.58114801 -20.63780957 1.4822601 -15.84375 1.39257812 C-14.06379941 1.35559731 -12.28385137 1.31849348 -10.50390625 1.28125 C-9.6748024 1.26771484 -8.84569855 1.25417969 -7.99147034 1.24023438 C-3.86256808 1.24915364 -3.86256808 1.24915364 0 0 Z " fill="#C2C2C3" transform="translate(248,327)"/>
<path d="M0 0 C0.84300559 2.93337808 1.12379876 5.53306944 1.12025452 8.58111572 C1.12162918 9.49534302 1.12300385 10.40957031 1.12442017 11.35150146 C1.12082489 12.34700012 1.11722961 13.34249878 1.11352539 14.36816406 C1.11367142 15.42213379 1.11381744 16.47610352 1.1139679 17.56201172 C1.1132711 21.0465704 1.10548953 24.53107566 1.09765625 28.015625 C1.09579124 30.43129446 1.09436773 32.8469643 1.09336853 35.26263428 C1.08954986 41.62155196 1.07972508 47.98044681 1.06866455 54.33935547 C1.05843649 60.82779634 1.05386791 67.31624089 1.04882812 73.8046875 C1.03810226 86.53646807 1.02122575 99.26823282 1 112 C4.35594194 110.7367158 6.63290296 109.74084921 9 107 C9.66 107.33 10.32 107.66 11 108 C7.82679218 111.53586014 5.83256305 113.58578031 1 114 C1 114.99 1 115.98 1 117 C0.01 117 -0.98 117 -2 117 C-1.83701416 116.06743378 -1.67402832 115.13486755 -1.50610352 114.17404175 C-0.80008628 109.19354005 -0.87620686 104.23644163 -0.90234375 99.21533203 C-0.90380402 98.15277695 -0.90526428 97.09022186 -0.9067688 95.99546814 C-0.91056243 93.69834042 -0.91666588 91.4012156 -0.92483521 89.10409927 C-0.93761934 85.4739244 -0.94411903 81.84378612 -0.94897461 78.21359253 C-0.96038558 70.51737852 -0.97965141 62.82119488 -1 55.125 C-1.02356228 46.18671772 -1.04394611 37.24845226 -1.05593872 28.31014633 C-1.06244748 24.72424809 -1.07495141 21.13840168 -1.08764648 17.55252075 C-1.09127633 15.37111456 -1.09462839 13.18970789 -1.09765625 11.00830078 C-1.10282257 10.00366287 -1.10798889 8.99902496 -1.11331177 7.96394348 C-1.11338226 7.05554214 -1.11345276 6.14714081 -1.11352539 5.21121216 C-1.115746 4.4174222 -1.11796661 3.62363224 -1.12025452 2.80578804 C-1 1 -1 1 0 0 Z " fill="#353435" transform="translate(282,205)"/>
<path d="M0 0 C0 0.33 0 0.66 0 1 C-5.94 1.495 -5.94 1.495 -12 2 C-12 2.66 -12 3.32 -12 4 C2.85 4.33 17.7 4.66 33 5 C33 5.33 33 5.66 33 6 C-10.60961532 6.19000101 -10.60961532 6.19000101 -25.6875 5.5625 C-26.63230225 5.52326416 -27.57710449 5.48402832 -28.55053711 5.44360352 C-34.06708607 5.17868306 -39.51689499 4.66108358 -45 4 C-45 3.34 -45 2.68 -45 2 C-30.24610595 -0.70943425 -14.93863459 -0.13548364 0 0 Z " fill="#676668" transform="translate(179,330)"/>
<path d="M0 0 C14.52 0 29.04 0 44 0 C44 0.66 44 1.32 44 2 C45.32 2 46.64 2 48 2 C48 2.66 48 3.32 48 4 C45.35257807 5.32371096 43.10865525 5.30100255 40.15234375 5.5 C38.99025391 5.5825 37.82816406 5.665 36.63085938 5.75 C34.16473134 5.91692987 31.69858543 6.08359571 29.23242188 6.25 C27.4912207 6.37375 27.4912207 6.37375 25.71484375 6.5 C24.64355225 6.5721875 23.57226074 6.644375 22.46850586 6.71875 C20.05861121 6.73388384 20.05861121 6.73388384 19 8 C17.33382885 8.04063832 15.66611905 8.042721 14 8 C14 9.65 14 11.3 14 13 C12.35 13 10.7 13 9 13 C9 11.35 9 9.7 9 8 C10.32 8 11.64 8 13 8 C13 7.34 13 6.68 13 6 C11.02 6 9.04 6 7 6 C7 5.67 7 5.34 7 5 C15.66996704 3.83288905 24.27369392 3.90255986 33 4 C33 3.34 33 2.68 33 2 C22.11 1.67 11.22 1.34 0 1 C0 0.67 0 0.34 0 0 Z " fill="#3E3E3E" transform="translate(407,330)"/>
<path d="M0 0 C1.98 0 3.96 0 6 0 C6 0.66 6 1.32 6 2 C7.32 2.33 8.64 2.66 10 3 C10.94864076 7.03172323 11.41665964 9.18404153 9.5 12.9375 C7 15 7 15 3.5625 15.625 C-0.87964988 14.84567546 -2.40212519 13.65326145 -5 10 C-4.91498029 6.42917202 -4.00413395 5.00620093 -2 2 C-1.34 2 -0.68 2 0 2 C0 1.34 0 0.68 0 0 Z " fill="#DFDFDE" transform="translate(349,9)"/>
<path d="M0 0 C0.33 0 0.66 0 1 0 C1.19658808 1.41543415 1.38187546 2.83244031 1.5625 4.25 C1.66691406 5.03890625 1.77132813 5.8278125 1.87890625 6.640625 C2.00027349 9.00532874 1.69633257 10.7511037 1 13 C1.99 13.33 2.98 13.66 4 14 C4.9802248 19.68839118 5.11948801 25.17294333 5.0625 30.9375 C5.05798828 31.81212891 5.05347656 32.68675781 5.04882812 33.58789062 C5.03714834 35.72529047 5.01921689 37.86265463 5 40 C4.67 40 4.34 40 4 40 C3.34 35.05 2.68 30.1 2 25 C1.34 38.2 0.68 51.4 0 65 C-0.33 65 -0.66 65 -1 65 C-1.02553307 57.67171988 -1.04294317 50.34345141 -1.05493164 43.01513672 C-1.05993404 40.52652559 -1.06673805 38.03791735 -1.07543945 35.54931641 C-1.08768549 31.95474529 -1.09326941 28.36021331 -1.09765625 24.765625 C-1.10281754 23.66825012 -1.10797882 22.57087524 -1.11329651 21.44024658 C-1.11380907 14.24560146 -0.70835856 7.15938615 0 0 Z " fill="#414141" transform="translate(275,159)"/>
<path d="M0 0 C2.84531332 2.84531332 2.40618344 4.99436614 2.6328125 8.9765625 C2.67437469 9.66181 2.71593689 10.3470575 2.75875854 11.05307007 C2.88958534 13.24330351 3.00743748 15.43401842 3.125 17.625 C3.21138654 19.10942489 3.29861567 20.593801 3.38671875 22.078125 C3.60092833 25.71823458 3.80350748 29.35888625 4 33 C4.33 29.7 4.66 26.4 5 23 C5.66 23 6.32 23 7 23 C7.33 22.34 7.66 21.68 8 21 C8 21.99 8 22.98 8 24 C7.34 24 6.68 24 6 24 C6.01160156 24.93199219 6.02320313 25.86398437 6.03515625 26.82421875 C6.09495359 35.272729 5.79517962 43.57961582 5 52 C3.68 51.67 2.36 51.34 1 51 C0.25563141 33.99038594 -0.15224767 17.02597388 0 0 Z " fill="#CCCCCD" transform="translate(274,371)"/>
<path d="M0 0 C0.33 0 0.66 0 1 0 C1.02558877 7.7005949 1.04296597 15.40117863 1.05493164 23.10180664 C1.0599259 25.71541758 1.06672361 28.32902578 1.07543945 30.94262695 C1.16597155 58.81053644 1.16597155 58.81053644 0 71 C-0.99 71 -1.98 71 -3 71 C-4.37868281 69.37064759 -5.71274093 67.70250393 -7 66 C-7.66 65.67 -8.32 65.34 -9 65 C-8 63 -8 63 -4.9375 61.875 C-3.4834375 61.441875 -3.4834375 61.441875 -2 61 C-1.9845388 60.16340347 -1.9845388 60.16340347 -1.96876526 59.30990601 C-1.85948079 53.43600564 -1.74500345 47.56222184 -1.62768555 41.68847656 C-1.58472211 39.50458242 -1.54302529 37.32066293 -1.50268555 35.13671875 C-1.28497999 23.39674491 -1.05555809 11.70050529 0 0 Z " fill="#434544" transform="translate(273,251)"/>
<path d="M0 0 C2.04119788 1.61594832 4.04072937 3.2856382 6 5 C6 5.66 6 6.32 6 7 C6.61875 7.2475 7.2375 7.495 7.875 7.75 C10.35068687 9.20628639 10.95125002 10.37812506 12 13 C12.66 13 13.32 13 14 13 C14 13.66 14 14.32 14 15 C14.66 15 15.32 15 16 15 C16.33 15.99 16.66 16.98 17 18 C17.804375 18.804375 18.60875 19.60875 19.4375 20.4375 C21.64973661 22.64973661 22.84198526 24.15760017 24 27 C20.12401658 26.43364626 18.19058297 24.63666633 15.375 22 C12.41969243 19.16503895 12.41969243 19.16503895 9 17 C9 16.34 9 15.68 9 15 C8.34 15 7.68 15 7 15 C6.525625 14.360625 6.05125 13.72125 5.5625 13.0625 C4.0908635 10.71627037 4.0908635 10.71627037 1 10 C0.855625 9.360625 0.71125 8.72125 0.5625 8.0625 C0.2840625 7.0415625 0.2840625 7.0415625 0 6 C-1.93330603 4.90833725 -1.93330603 4.90833725 -4 4 C-4.66 3.01 -5.32 2.02 -6 1 C-3.33333333 2.33333333 -0.66666667 3.66666667 2 5 C1.34 3.35 0.68 1.7 0 0 Z " fill="#ACACAD" transform="translate(305,359)"/>
<path d="M0 0 C0 0.33 0 0.66 0 1 C-1.93166016 1.09087891 -1.93166016 1.09087891 -3.90234375 1.18359375 C-5.58074159 1.26798247 -7.25912636 1.3526313 -8.9375 1.4375 C-10.21270508 1.49647461 -10.21270508 1.49647461 -11.51367188 1.55664062 C-12.32255859 1.59853516 -13.13144531 1.64042969 -13.96484375 1.68359375 C-15.08814087 1.73858032 -15.08814087 1.73858032 -16.23413086 1.79467773 C-18.02461326 1.81771063 -18.02461326 1.81771063 -19 3 C-14.545 3.99 -14.545 3.99 -10 5 C-10 5.33 -10 5.66 -10 6 C-13.60414885 6.02953103 -17.20826576 6.04697407 -20.8125 6.0625 C-21.81732422 6.07087891 -22.82214844 6.07925781 -23.85742188 6.08789062 C-41.85115319 6.14574828 -41.85115319 6.14574828 -49 3 C-49 2.67 -49 2.34 -49 2 C-43.64472445 1.15142771 -38.35160231 0.70022099 -32.9375 0.4375 C-32.08639648 0.3950415 -31.23529297 0.35258301 -30.35839844 0.30883789 C-20.2419703 -0.14741118 -10.12401971 -0.0943863 0 0 Z " fill="#DEDDDF" transform="translate(245,330)"/>
<path d="M0 0 C1.24341243 26.33322662 2.20497284 52.63396809 2.1875 79 C2.1882251 80.09270203 2.1889502 81.18540405 2.18969727 82.31121826 C2.18946412 85.39504737 2.18087711 88.47870035 2.16796875 91.5625 C2.16677536 92.47891266 2.16558197 93.39532532 2.16435242 94.33950806 C2.15805313 95.17750946 2.15175385 96.01551086 2.14526367 96.87890625 C2.14145187 97.6066626 2.13764008 98.33441895 2.13371277 99.08422852 C2 101 2 101 1 104 C-0.65 103.67 -2.3 103.34 -4 103 C-4 102.01 -4 101.02 -4 100 C-2.35 100 -0.7 100 1 100 C0.8798396 93.58512535 0.75515569 87.17034874 0.62768555 80.75561523 C0.58503785 78.58473585 0.54333322 76.41383768 0.50268555 74.24291992 C0.26823958 61.7593958 -0.08500932 49.29461281 -0.66622925 36.82223511 C-0.98177216 29.89848511 -1.12672636 22.99400691 -1.0625 16.0625 C-1.05798828 15.06927734 -1.05347656 14.07605469 -1.04882812 13.05273438 C-1.03747069 10.70174431 -1.021363 8.35091625 -1 6 C-3.31 6.33 -5.62 6.66 -8 7 C-3.53191489 0 -3.53191489 0 0 0 Z " fill="#606062" transform="translate(273,344)"/>
<path d="M0 0 C1.32 0.33 2.64 0.66 4 1 C4 2.98 4 4.96 4 7 C6.475 7.495 6.475 7.495 9 8 C8.67 8.66 8.34 9.32 8 10 C-1.54185869 12.15199366 -12.26668579 11.09077702 -22 11 C-22 10.67 -22 10.34 -22 10 C-19.03 10 -16.06 10 -13 10 C-13 9.34 -13 8.68 -13 8 C-13.56920166 8.00523682 -14.13840332 8.01047363 -14.72485352 8.01586914 C-17.33739083 8.03682887 -19.94991037 8.04972004 -22.5625 8.0625 C-23.90538086 8.07506836 -23.90538086 8.07506836 -25.27539062 8.08789062 C-30.29997943 8.10629571 -35.04817291 7.86266398 -40 7 C-40 6.67 -40 6.34 -40 6 C-19.705 6.495 -19.705 6.495 1 7 C0.505 3.535 0.505 3.535 0 0 Z " fill="#9A999A" transform="translate(396,324)"/>
<path d="M0 0 C0.66 0.33 1.32 0.66 2 1 C2 1.66 2 2.32 2 3 C2.66 3 3.32 3 4 3 C4 3.66 4 4.32 4 5 C4.66 5 5.32 5 6 5 C9 9.38461538 9 9.38461538 9 12 C10.32 12.33 11.64 12.66 13 13 C13 13.99 13 14.98 13 16 C8.38 16 3.76 16 -1 16 C-1 14.35 -1 12.7 -1 11 C-1.99 10.67 -2.98 10.34 -4 10 C-2.68 9.67 -1.36 9.34 0 9 C-0.185625 8.443125 -0.37125 7.88625 -0.5625 7.3125 C-1.07551165 4.600867 -0.6640724 2.65628961 0 0 Z " fill="#383738" transform="translate(253,312)"/>
<path d="M0 0 C1.9375 1.125 1.9375 1.125 3 3 C3.38976435 6.11811483 3.50422245 8.11019567 1.9375 10.875 C-1.1069286 12.64273274 -3.5631012 12.36823916 -7 12 C-8.9375 10.875 -8.9375 10.875 -10 9 C-10.38976435 5.88188517 -10.50422245 3.88980433 -8.9375 1.125 C-5.8930714 -0.64273274 -3.4368988 -0.36823916 0 0 Z " fill="#F3F3F3" transform="translate(425,28)"/>
<path d="M0 0 C0 0.66 0 1.32 0 2 C0.66 2 1.32 2 2 2 C2 4.64 2 7.28 2 10 C1.34 10 0.68 10 0 10 C0 10.66 0 11.32 0 12 C-1.27875 12.061875 -2.5575 12.12375 -3.875 12.1875 C-4.59429687 12.22230469 -5.31359375 12.25710937 -6.0546875 12.29296875 C-6.69664062 12.19628906 -7.33859375 12.09960938 -8 12 C-10.67927341 7.98108988 -10.15601248 5.75838077 -10 1 C-6.78548731 -0.60725635 -3.56387464 -0.05748185 0 0 Z " fill="#F3F3F3" transform="translate(388,210)"/>
<path d="M0 0 C2.4375 2.1875 2.4375 2.1875 4 5 C4 7.6875 4 7.6875 3 10 C0.4508175 12.07711167 -0.83577202 12.0164228 -4.125 11.6875 C-7 11 -7 11 -9 10 C-9.95067299 6.71585695 -10.10102197 5.30306592 -9 2 C-5.50434664 -0.33043558 -4.1134271 -0.58763244 0 0 Z " fill="#D4D4D5" transform="translate(297,515)"/>
<path d="M0 0 C0 0.33 0 0.66 0 1 C-3.63 1.33 -7.26 1.66 -11 2 C-11 2.66 -11 3.32 -11 4 C-9.081875 3.9690625 -9.081875 3.9690625 -7.125 3.9375 C-2.03792983 3.92941245 2.9516147 4.40979211 8 5 C8 5.33 8 5.66 8 6 C-5.7114296 6.45620283 -19.34665315 5.11094101 -33 4 C-33.33 3.01 -33.66 2.02 -34 1 C-22.66560627 -0.17759935 -11.3815148 -0.10492107 0 0 Z " fill="#3B3B3B" transform="translate(133,330)"/>
<path d="M0 0 C0.66 0 1.32 0 2 0 C2.69584017 4.02040985 3.1700097 7.08263419 2 11 C-8.53922138 11.27256607 -18.57904782 10.53370124 -29 9 C-29 8.67 -29 8.34 -29 8 C-27.865625 7.855625 -26.73125 7.71125 -25.5625 7.5625 C-22.19222799 7.38828522 -22.19222799 7.38828522 -21 6 C-19.51361008 5.84344973 -18.02050873 5.74933057 -16.52734375 5.68359375 C-15.62822266 5.64169922 -14.72910156 5.59980469 -13.80273438 5.55664062 C-12.85720703 5.51732422 -11.91167969 5.47800781 -10.9375 5.4375 C-9.98810547 5.39431641 -9.03871094 5.35113281 -8.06054688 5.30664062 C-5.70718647 5.20020724 -3.35371646 5.09818992 -1 5 C-0.67 3.35 -0.34 1.7 0 0 Z " fill="#F6F6F6" transform="translate(248,325)"/>
<path d="M0 0 C0 0.66 0 1.32 0 2 C0.66 2 1.32 2 2 2 C2 2.66 2 3.32 2 4 C2.66 4 3.32 4 4 4 C4.21917317 6.70313576 4.32851983 8.43958382 2.9375 10.8125 C-0.02772524 12.62989611 -2.60485345 12.24691975 -6 12 C-6.66 11.67 -7.32 11.34 -8 11 C-8.97465209 7.7216248 -9.32345452 5.19834842 -8 2 C-4.77208445 -0.1519437 -3.71599191 -0.20086443 0 0 Z " fill="#F4F4F4" transform="translate(114,568)"/>
<path d="M0 0 C16.34705338 -0.20181547 32.66634578 0.41431871 49 1 C49 1.33 49 1.66 49 2 C32.83 2.33 16.66 2.66 0 3 C0 2.01 0 1.02 0 0 Z M-1 3 C-0.34 3.66 0.32 4.32 1 5 C0.67 5.66 0.34 6.32 0 7 C10.23 7 20.46 7 31 7 C31 7.33 31 7.66 31 8 C17.47 8.33 3.94 8.66 -10 9 C-6 7 -6 7 -3 6 C-2.34 5.01 -1.68 4.02 -1 3 Z " fill="#C2C0C1" transform="translate(299,328)"/>
<path d="M0 0 C-0.33 0.66 -0.66 1.32 -1 2 C-0.34 2.33 0.32 2.66 1 3 C-1.64 3.66 -4.28 4.32 -7 5 C-7.33 4.34 -7.66 3.68 -8 3 C-8.98419922 3.24169922 -8.98419922 3.24169922 -9.98828125 3.48828125 C-13.72978728 4.12399758 -17.40469455 4.18407665 -21.1875 4.1875 C-22.27321289 4.20586914 -22.27321289 4.20586914 -23.38085938 4.22460938 C-25.25539471 4.22984064 -27.1294635 4.12248796 -29 4 C-29.66 3.34 -30.32 2.68 -31 2 C-25.06 1.505 -25.06 1.505 -19 1 C-19 0.34 -19 -0.32 -19 -1 C-20.32 -1.33 -21.64 -1.66 -23 -2 C-19.73063506 -2.25485425 -16.45983259 -2.47442831 -13.1875 -2.6875 C-12.25873047 -2.76033203 -11.32996094 -2.83316406 -10.37304688 -2.90820312 C-9.48037109 -2.96298828 -8.58769531 -3.01777344 -7.66796875 -3.07421875 C-6.43469849 -3.16062622 -6.43469849 -3.16062622 -5.17651367 -3.2487793 C-2.47893026 -2.94044082 -1.67392069 -2.07168402 0 0 Z " fill="#333334" transform="translate(474,333)"/>
<path d="M0 0 C0.33 0 0.66 0 1 0 C2.18367271 6.34342308 2.18391922 12.50284698 2.1875 18.9375 C2.19974609 20.09185547 2.21199219 21.24621094 2.22460938 22.43554688 C2.23478408 28.34704807 2.05049354 33.43205904 0 39 C-0.66 39 -1.32 39 -2 39 C-3.625 36.5 -3.625 36.5 -5 34 C-5.33 36.31 -5.66 38.62 -6 41 C-7.32 40.67 -8.64 40.34 -10 40 C-8.515 39.505 -8.515 39.505 -7 39 C-7 34.05 -7 29.1 -7 24 C-6.01 24 -5.02 24 -4 24 C-4 25.98 -4 27.96 -4 30 C-2.35 30.33 -0.7 30.66 1 31 C0.9278125 29.85144531 0.855625 28.70289063 0.78125 27.51953125 C0.22484302 18.32939392 -0.14644932 9.21003476 0 0 Z " fill="#D1D1D1" transform="translate(280,283)"/>
<path d="M0 0 C3.92243395 5.88365093 3.20149114 13.01112818 3.31640625 19.8671875 C3.33718735 20.90191193 3.35796844 21.93663635 3.37937927 23.00271606 C3.4445282 26.29341274 3.50359809 29.58418617 3.5625 32.875 C3.6057182 35.11198696 3.64933353 37.34896629 3.69335938 39.5859375 C3.80017389 45.05721158 3.90200337 50.52856126 4 56 C1.13231454 53.13231454 1.64651855 50.21347695 1.5859375 46.3671875 C1.56657135 45.61535187 1.5472052 44.86351624 1.5272522 44.08889771 C1.46740853 41.68438101 1.42105274 39.27981656 1.375 36.875 C1.33682454 35.24607272 1.29777307 33.61716572 1.2578125 31.98828125 C1.16170334 27.99235194 1.07769059 23.99632813 1 20 C0.67 22.97 0.34 25.94 0 29 C-0.33 29 -0.66 29 -1 29 C-1.02948491 25.85418698 -1.04695916 22.70841037 -1.0625 19.5625 C-1.07506836 18.24475586 -1.07506836 18.24475586 -1.08789062 16.90039062 C-1.10899107 11.18216923 -0.73280057 5.67199185 0 0 Z " fill="#EDEDED" transform="translate(277,243)"/>
<path d="M0 0 C-1.88809491 5.83592972 -5.36000209 9.69469554 -10.0625 13.4375 C-13.47732409 16.4163891 -14.95909131 18.99667911 -17 23 C-17.66 22.67 -18.32 22.34 -19 22 C-17.68 19.69 -16.36 17.38 -15 15 C-16.32 15.33 -17.64 15.66 -19 16 C-19.33 17.32 -19.66 18.64 -20 20 C-20.99 19.67 -21.98 19.34 -23 19 C-22.67 18.34 -22.34 17.68 -22 17 C-21.34 17 -20.68 17 -20 17 C-20 16.34 -20 15.68 -20 15 C-18.06640625 13.34375 -18.06640625 13.34375 -15.5625 11.5 C-12.25143208 9.20089737 -12.25143208 9.20089737 -10 6 C-9.34 6 -8.68 6 -8 6 C-8 5.34 -8 4.68 -8 4 C-2.58823529 0 -2.58823529 0 0 0 Z " fill="#A5A5A6" transform="translate(324,285)"/>
<path d="M0 0 C1.28148926 0.00424484 1.28148926 0.00424484 2.58886719 0.00857544 C5.28856053 0.01967371 7.98790877 0.04475823 10.6875 0.0703125 C12.52994309 0.08035571 14.37239143 0.0894792 16.21484375 0.09765625 C20.70585994 0.119579 25.19662168 0.15403604 29.6875 0.1953125 C29.6875 0.5253125 29.6875 0.8553125 29.6875 1.1953125 C28.3574292 1.23289673 28.3574292 1.23289673 27.00048828 1.27124023 C23.66429384 1.36721295 20.3282247 1.46638665 16.9921875 1.56762695 C15.55700309 1.61054745 14.12178154 1.6522459 12.68652344 1.69262695 C5.29097392 1.90149708 -2.05458841 2.11838889 -9.39892578 3.09399414 C-11.3125 3.1953125 -11.3125 3.1953125 -14.3125 2.1953125 C-13.9825 2.8553125 -13.6525 3.5153125 -13.3125 4.1953125 C-10.59410006 4.66670202 -10.59410006 4.66670202 -7.30859375 4.828125 C-6.09365234 4.91191406 -4.87871094 4.99570312 -3.62695312 5.08203125 C-1.70786133 5.19998047 -1.70786133 5.19998047 0.25 5.3203125 C1.53326172 5.40667969 2.81652344 5.49304688 4.13867188 5.58203125 C7.32115162 5.79498528 10.50395709 5.99900401 13.6875 6.1953125 C13.6875 6.5253125 13.6875 6.8553125 13.6875 7.1953125 C10.39591135 7.25436667 7.10446244 7.28925625 3.8125 7.3203125 C2.8946875 7.33707031 1.976875 7.35382813 1.03125 7.37109375 C-5.32062606 7.41582527 -11.13860036 6.68382813 -17.3125 5.1953125 C-17.3125 4.2053125 -17.3125 3.2153125 -17.3125 2.1953125 C-11.38317521 0.48173764 -6.15323395 -0.07824366 0 0 Z " fill="#2E2D2E" transform="translate(113.3125,328.8046875)"/>
<path d="M0 0 C17.01473738 -0.19733587 33.99848339 0.40793088 51 1 C50.3791378 4.68297866 49.93325018 6.57688029 47 9 C47 7.35 47 5.7 47 4 C43.56623732 2.28311866 39.61885635 2.75490998 35.8359375 2.68359375 C34.92872955 2.66281265 34.02152161 2.64203156 33.08682251 2.62062073 C30.1829602 2.55512865 27.27900595 2.49624186 24.375 2.4375 C22.40884458 2.39431445 20.44269853 2.35070015 18.4765625 2.30664062 C13.65113638 2.19944761 8.8256176 2.09817919 4 2 C4 2.99 4 3.98 4 5 C2.68 5 1.36 5 0 5 C0 3.35 0 1.7 0 0 Z " fill="#616061" transform="translate(216,336)"/>
<path d="M0 0 C12.54 0 25.08 0 38 0 C37.67 0.99 37.34 1.98 37 3 C26.44 3 15.88 3 5 3 C5 2.67 5 2.34 5 2 C3.35 1.67 1.7 1.34 0 1 C0 0.67 0 0.34 0 0 Z " fill="#FAFAFB" transform="translate(309,331)"/>
<path d="M0 0 C0.33 0 0.66 0 1 0 C3.51636677 13.61534164 3.20381134 27.20197236 3 41 C2.67 41 2.34 41 2 41 C1.67 37.37 1.34 33.74 1 30 C0.34 30.33 -0.32 30.66 -1 31 C-1.02932237 27.33335046 -1.04690637 23.6667316 -1.0625 20 C-1.07087891 18.97003906 -1.07925781 17.94007813 -1.08789062 16.87890625 C-1.10613637 11.14974387 -0.86475384 5.66515899 0 0 Z " fill="#939394" transform="translate(277,204)"/>
<path d="M0 0 C3.0625 0.375 3.0625 0.375 5 2 C6.40307059 5.13627543 5.88137495 7.09950019 5.0625 10.375 C2.0925 10.375 -0.8775 10.375 -3.9375 10.375 C-5.31875018 7.61249964 -5.12829306 5.42768901 -4.9375 2.375 C-2.9375 0.375 -2.9375 0.375 0 0 Z " fill="#C8C7C8" transform="translate(509.9375,339.625)"/>
<path d="M0 0 C0.33 0.66 0.66 1.32 1 2 C-0.32 3.65 -1.64 5.3 -3 7 C-2.34 7.33 -1.68 7.66 -1 8 C-1.55429688 8.54269531 -2.10859375 9.08539063 -2.6796875 9.64453125 C-3.76636719 10.71767578 -3.76636719 10.71767578 -4.875 11.8125 C-5.59429687 12.52019531 -6.31359375 13.22789062 -7.0546875 13.95703125 C-9.15358937 16.04399194 -9.15358937 16.04399194 -11 19 C-13.95264073 21.04413589 -15.36672806 22 -19 22 C-15.69105514 16.20934649 -11.6981054 11.6981054 -7 7 C-5.948125 5.6696875 -5.948125 5.6696875 -4.875 4.3125 C-3 2 -3 2 0 0 Z " fill="#B0B0B0" transform="translate(246,362)"/>
<path d="M0 0 C0.33 0 0.66 0 1 0 C1.02465881 3.96930989 1.04284023 7.93859034 1.05493164 11.90795898 C1.05997057 13.25920386 1.06680177 14.61044326 1.07543945 15.96166992 C1.08752419 17.90020434 1.09269828 19.838778 1.09765625 21.77734375 C1.10289307 22.94515381 1.10812988 24.11296387 1.11352539 25.31616211 C1 28 1 28 0 29 C-0.22753357 30.7037908 -0.39473238 32.41573499 -0.53515625 34.12890625 C-0.62216797 35.16337891 -0.70917969 36.19785156 -0.79882812 37.26367188 C-0.88583984 38.35228516 -0.97285156 39.44089844 -1.0625 40.5625 C-1.19881836 42.2012207 -1.19881836 42.2012207 -1.33789062 43.87304688 C-1.56262811 46.58172492 -1.78314089 49.29068166 -2 52 C-2.33 52 -2.66 52 -3 52 C-3.68271293 43.64895793 -4.15392039 35.38011029 -4 27 C-3.01 27.33 -2.02 27.66 -1 28 C-1.01160156 27.23558594 -1.02320313 26.47117187 -1.03515625 25.68359375 C-1.10772735 17.06836707 -0.66488364 8.58412275 0 0 Z " fill="#A6A5A7" transform="translate(280,395)"/>
<path d="M0 0 C3.375 0.6875 3.375 0.6875 4.375 1.6875 C4.67073841 4.49701486 4.75743085 6.10378976 3.1875 8.5 C0.72592224 10.11275784 -0.73565736 10.1209014 -3.625 9.6875 C-5.4375 8.5 -5.4375 8.5 -6.625 6.6875 C-7 4.125 -7 4.125 -6.625 1.6875 C-3.625 -0.3125 -3.625 -0.3125 0 0 Z " fill="#ECECED" transform="translate(400.625,271.3125)"/>
<path d="M0 0 C1.70884005 1.62339805 3.37446717 3.29319053 5 5 C5 5.66 5 6.32 5 7 C5.928125 7.37125 5.928125 7.37125 6.875 7.75 C9.35068687 9.20628639 9.95125002 10.37812506 11 13 C10.01 13 9.02 13 8 13 C8 12.01 8 11.02 8 10 C7.01 10.495 7.01 10.495 6 11 C6.33 11.556875 6.66 12.11375 7 12.6875 C8 15 8 15 8 20 C2.72 20 -2.56 20 -8 20 C-8 18.35 -8 16.7 -8 15 C-9.32 15.99 -10.64 16.98 -12 18 C-11.67 16.68 -11.34 15.36 -11 14 C-9.68 14 -8.36 14 -7 14 C-7 15.65 -7 17.3 -7 19 C-2.38 19 2.24 19 7 19 C6.67 18.01 6.34 17.02 6 16 C5.01 15.67 4.02 15.34 3 15 C0.67734388 12.41927097 0 11.54823932 0 8 C-0.66 8 -1.32 8 -2 8 C-1.67 7.34 -1.34 6.68 -1 6 C0.5 7.375 0.5 7.375 2 9 C2 9.66 2 10.32 2 11 C2.66 11 3.32 11 4 11 C3.67 8.69 3.34 6.38 3 4 C2.01 4 1.02 4 0 4 C0 2.68 0 1.36 0 0 Z " fill="#BABAB8" transform="translate(259,309)"/>
<path d="M0 0 C0.33 0 0.66 0 1 0 C1.495 3.465 1.495 3.465 2 7 C-14.36409773 7.10589013 -30.66590773 7.15202666 -47 6 C-47 5.67 -47 5.34 -47 5 C-31.49 5 -15.98 5 0 5 C-0.495 3.02 -0.495 3.02 -1 1 C-0.67 0.67 -0.34 0.34 0 0 Z " fill="#5B5A5A" transform="translate(395,324)"/>
<path d="M0 0 C5.17424559 0.90491291 8.58109535 4.16691086 12 8 C13.15346063 10.42414287 13.56265377 12.32125435 14 15 C9.37797692 14.00512508 5.46333443 12.27262218 2 9 C0.77824123 6.03500006 0.27757465 3.18516915 0 0 Z " fill="#C3C3C4" transform="translate(293,349)"/>
<path d="M0 0 C1.32 0.33 2.64 0.66 4 1 C4 1.66 4 2.32 4 3 C4.9590625 3.1546875 4.9590625 3.1546875 5.9375 3.3125 C6.618125 3.539375 7.29875 3.76625 8 4 C8.33 4.99 8.66 5.98 9 7 C11.00121175 9.36506843 11.96799661 9.9893322 15 11 C15 11.66 15 12.32 15 13 C16.65 13.66 18.3 14.32 20 15 C20 15.66 20 16.32 20 17 C18.35 16.34 16.7 15.68 15 15 C15.33 16.32 15.66 17.64 16 19 C14.29115995 17.37660195 12.62553283 15.70680947 11 14 C11 13.34 11 12.68 11 12 C10.443125 11.773125 9.88625 11.54625 9.3125 11.3125 C6.35823409 9.63575448 4.33152149 7.45423315 2 5 C1.34 4.34 0.68 3.68 0 3 C0 2.01 0 1.02 0 0 Z " fill="#B4B3B3" transform="translate(226,280)"/>
<path d="M0 0 C0 0.33 0 0.66 0 1 C-1.134375 1.12375 -2.26875 1.2475 -3.4375 1.375 C-5.2009375 1.684375 -5.2009375 1.684375 -7 2 C-7.33 2.66 -7.66 3.32 -8 4 C-5.36 4 -2.72 4 0 4 C0 4.33 0 4.66 0 5 C-2.66673742 5.02727345 -5.33318869 5.04696948 -8 5.0625 C-9.11568359 5.07506836 -9.11568359 5.07506836 -10.25390625 5.08789062 C-15.26148844 5.10966272 -20.04279032 4.71541549 -25 4 C-25 3.34 -25 2.68 -25 2 C-17.92337758 -1.53831121 -7.67288297 -0.10823816 0 0 Z " fill="#9E9D9E" transform="translate(192,330)"/>
<path d="M0 0 C1.125 5.625 1.125 5.625 0 9 C-2.31 9 -4.62 9 -7 9 C-9.125 3.375 -9.125 3.375 -8 0 C-5.13822943 -1.43088528 -3.06624227 -0.59991697 0 0 Z " fill="#CACACA" transform="translate(350,135)"/>
<path d="M0 0 C3.63 0 7.26 0 11 0 C11 0.66 11 1.32 11 2 C25.85 2.33 40.7 2.66 56 3 C56 3.33 56 3.66 56 4 C49.89852185 4.02485094 43.79707363 4.04293117 37.69555664 4.05493164 C35.62296027 4.0599383 33.55036739 4.06674559 31.4777832 4.07543945 C28.48648208 4.08766646 25.49522794 4.09326513 22.50390625 4.09765625 C21.12991417 4.10539818 21.12991417 4.10539818 19.72816467 4.11329651 C14.07228728 4.11378183 8.61090796 3.7210104 3 3 C3 2.34 3 1.68 3 1 C2.01 0.67 1.02 0.34 0 0 Z " fill="#7D7C7E" transform="translate(156,332)"/>
<path d="M0 0 C4.46165577 -0.05016131 8.92315374 -0.08607179 13.38500977 -0.10986328 C14.89675767 -0.11980161 16.40848699 -0.13335698 17.92016602 -0.15087891 C27.51476826 -0.25914856 36.54596334 0.1680545 46 2 C46 2.66 46 3.32 46 4 C41.05 4.33 36.1 4.66 31 5 C31 4.01 31 3.02 31 2 C20.77 1.67 10.54 1.34 0 1 C0 0.67 0 0.34 0 0 Z " fill="#E3E3E3" transform="translate(315,330)"/>
<path d="M0 0 C0 1.98 0 3.96 0 6 C-0.66 6 -1.32 6 -2 6 C-2 6.66 -2 7.32 -2 8 C-3.98 8 -5.96 8 -8 8 C-8 7.34 -8 6.68 -8 6 C-8.66 6 -9.32 6 -10 6 C-10 4.02 -10 2.04 -10 0 C-6.30581799 -1.231394 -3.7943739 -0.64432764 0 0 Z " fill="#D3D3D3" transform="translate(52,416)"/>
<path d="M0 0 C0 0.33 0 0.66 0 1 C-1.98 1 -3.96 1 -6 1 C-6 1.66 -6 2.32 -6 3 C5.22 3.33 16.44 3.66 28 4 C28 4.33 28 4.66 28 5 C12.52008576 5.22568003 -2.64555738 5.09463773 -18 3 C-18 2.34 -18 1.68 -18 1 C-12.03325384 -0.32594359 -6.07416385 -0.0884587 0 0 Z " fill="#505051" transform="translate(140,331)"/>
<path d="M0 0 C0.33 0 0.66 0 1 0 C1.19620767 2.06168985 1.38160753 4.12440998 1.5625 6.1875 C1.66691406 7.33605469 1.77132813 8.48460937 1.87890625 9.66796875 C2 13 2 13 1.52514648 15.23754883 C0.87266647 18.66981819 0.78821501 22.04996072 0.71875 25.53125 C0.70034058 26.24478638 0.68193115 26.95832275 0.66296387 27.69348145 C0.60452967 29.96224172 0.55157745 32.23107413 0.5 34.5 C0.43203713 37.48973123 0.35838006 40.47924276 0.28125 43.46875 C0.26767456 44.14909302 0.25409912 44.82943604 0.2401123 45.53039551 C0.14675077 49.12785166 -0.16714249 52.49660342 -1 56 C-1.33 56 -1.66 56 -2 56 C-1.88070855 49.9533427 -1.75640498 43.90681553 -1.62768555 37.86035156 C-1.58467936 35.80829587 -1.54298429 33.75621221 -1.50268555 31.70410156 C-1.07132673 9.8272867 -1.07132673 9.8272867 0 0 Z " fill="#2B2B2C" transform="translate(281,458)"/>
<path d="M0 0 C0.33 0 0.66 0 1 0 C1 7.92 1 15.84 1 24 C0.34 24 -0.32 24 -1 24 C-1 27.3 -1 30.6 -1 34 C-1.99 34.495 -1.99 34.495 -3 35 C-3.33 30.71 -3.66 26.42 -4 22 C-3.01 22 -2.02 22 -1 22 C-1.00523682 21.36908447 -1.01047363 20.73816895 -1.01586914 20.08813477 C-1.03657826 17.24626653 -1.04964066 14.40441412 -1.0625 11.5625 C-1.07087891 10.56927734 -1.07925781 9.57605469 -1.08789062 8.55273438 C-1.09111328 7.60849609 -1.09433594 6.66425781 -1.09765625 5.69140625 C-1.10289307 4.81685791 -1.10812988 3.94230957 -1.11352539 3.04125977 C-1 1 -1 1 0 0 Z " fill="#E8E8E9" transform="translate(280,370)"/>
<path d="M0 0 C0 0.66 0 1.32 0 2 C0.66 2 1.32 2 2 2 C2 4.97 2 7.94 2 11 C-0.97 10.505 -0.97 10.505 -4 10 C-4 9.34 -4 8.68 -4 8 C-4.66 8 -5.32 8 -6 8 C-6.1875 5.125 -6.1875 5.125 -6 2 C-3 0 -3 0 0 0 Z " fill="#E0E0E0" transform="translate(412,295)"/>
<path d="M0 0 C1.65 0 3.3 0 5 0 C5 1.65 5 3.3 5 5 C5.99 5.33 6.98 5.66 8 6 C7.01 8.31 6.02 10.62 5 13 C3.68 13 2.36 13 1 13 C-0.10228696 8.59085217 -0.07654536 4.51617599 0 0 Z " fill="#555555" transform="translate(331,555)"/>
<path d="M0 0 C2.875 -0.125 2.875 -0.125 6 0 C8 2 8 2 8.125 5.125 C8.08375 6.07375 8.0425 7.0225 8 8 C5.69 8.33 3.38 8.66 1 9 C-1 6 -1 6 -0.625 2.8125 C-0.41875 1.884375 -0.2125 0.95625 0 0 Z " fill="#C6C5C5" transform="translate(20,90)"/>
<path d="M0 0 C0.33 0 0.66 0 1 0 C1.02531773 7.06582882 1.04285324 14.13164598 1.05493164 21.19750977 C1.05996598 23.60213661 1.06679386 26.00676038 1.07543945 28.41137695 C1.08754429 31.86410275 1.09323726 35.31678814 1.09765625 38.76953125 C1.10281754 39.84773636 1.10797882 40.92594147 1.11329651 42.03681946 C1.11337204 43.03763046 1.11344757 44.03844147 1.11352539 45.06958008 C1.115746 45.95116287 1.11796661 46.83274567 1.12025452 47.74104309 C1 50 1 50 0 53 C-1.65 52.67 -3.3 52.34 -5 52 C-5 51.01 -5 50.02 -5 49 C-3.35 49 -1.7 49 0 49 C0 32.83 0 16.66 0 0 Z " fill="#6D6D6E" transform="translate(274,395)"/>
<path d="M0 0 C2.5 0.25 2.5 0.25 4.5 2.25 C4.75 4.75 4.75 4.75 4.5 7.25 C2.5 9.25 2.5 9.25 -0.125 9.375 C-0.90875 9.33375 -1.6925 9.2925 -2.5 9.25 C-2.5 8.59 -2.5 7.93 -2.5 7.25 C-3.16 7.25 -3.82 7.25 -4.5 7.25 C-4.625 4.875 -4.625 4.875 -4.5 2.25 C-2.5 0.25 -2.5 0.25 0 0 Z " fill="#E3E2E2" transform="translate(386.5,386.75)"/>
<path d="M0 0 C1 1 1 1 1.0625 4.0625 C1.041875 5.031875 1.02125 6.00125 1 7 C-2.375 7.625 -2.375 7.625 -6 8 C-6.66 7.34 -7.32 6.68 -8 6 C-7.75 2.9375 -7.75 2.9375 -7 0 C-4.31633121 -1.3418344 -2.84719317 -0.73004953 0 0 Z " fill="#B7B7B7" transform="translate(44,341)"/>
<path d="M0 0 C1.67542976 0.28604898 3.34385343 0.61781233 5 1 C4.67 2.65 4.34 4.3 4 6 C2.68 6.33 1.36 6.66 0 7 C-0.33 8.65 -0.66 10.3 -1 12 C-1.99 12 -2.98 12 -4 12 C-4.33 10.02 -4.66 8.04 -5 6 C-3.68 6 -2.36 6 -1 6 C-1.020625 5.195625 -1.04125 4.39125 -1.0625 3.5625 C-1 1 -1 1 0 0 Z " fill="#A0A0A0" transform="translate(370,209)"/>
<path d="M0 0 C0.75 1.75 0.75 1.75 1 4 C-0.9375 6.25 -0.9375 6.25 -3 8 C-3.33 6.68 -3.66 5.36 -4 4 C-6.64 3.67 -9.28 3.34 -12 3 C-12 2.01 -12 1.02 -12 0 C-7.74433453 -1.16063604 -4.3164922 -0.76173392 0 0 Z " fill="#322F2E" transform="translate(263,339)"/>
<path d="M0 0 C2.5 0.25 2.5 0.25 4.5 2.25 C4.625 4.875 4.625 4.875 4.5 7.25 C-1.125 8.375 -1.125 8.375 -4.5 7.25 C-4.625 4.875 -4.625 4.875 -4.5 2.25 C-2.5 0.25 -2.5 0.25 0 0 Z " fill="#8D8E8D" transform="translate(373.5,456.75)"/>
<path d="M0 0 C1.2065625 0.0309375 1.2065625 0.0309375 2.4375 0.0625 C2.4375 0.7225 2.4375 1.3825 2.4375 2.0625 C3.0975 2.0625 3.7575 2.0625 4.4375 2.0625 C4.4375 4.0425 4.4375 6.0225 4.4375 8.0625 C1.7975 8.0625 -0.8425 8.0625 -3.5625 8.0625 C-3.60491723 5.72955225 -3.60342937 3.39547433 -3.5625 1.0625 C-2.5625 0.0625 -2.5625 0.0625 0 0 Z " fill="#A4A4A5" transform="translate(11.5625,365.9375)"/>
<path d="M0 0 C0.66 0 1.32 0 2 0 C2 0.66 2 1.32 2 2 C2.66 2 3.32 2 4 2 C4.33 2.99 4.66 3.98 5 5 C5.804375 5.804375 6.60875 6.60875 7.4375 7.4375 C9.64973661 9.64973661 10.84198526 11.15760017 12 14 C8.12401658 13.43364626 6.19058297 11.63666633 3.375 9 C0.41969243 6.16503895 0.41969243 6.16503895 -3 4 C-2.67 3.34 -2.34 2.68 -2 2 C-1.01 2.33 -0.02 2.66 1 3 C0.67 2.01 0.34 1.02 0 0 Z " fill="#717171" transform="translate(317,372)"/>
<path d="M0 0 C1.32 0 2.64 0 4 0 C4 0.66 4 1.32 4 2 C4.66 2 5.32 2 6 2 C6 3.98 6 5.96 6 8 C3.36 8 0.72 8 -2 8 C-2.125 5.125 -2.125 5.125 -2 2 C-1.34 1.34 -0.68 0.68 0 0 Z " fill="#B3B3B3" transform="translate(91,371)"/>
<path d="M0 0 C1.17539996 0.92652701 2.34010577 1.86663387 3.5 2.8125 C4.1496875 3.33457031 4.799375 3.85664063 5.46875 4.39453125 C7 6 7 6 7 9 C5.68 8.34 4.36 7.68 3 7 C3.33 8.98 3.66 10.96 4 13 C-0.29926263 11.40768051 -2.35005733 8.60686641 -5 5 C-5 4.01 -5 3.02 -5 2 C-5.99 1.67 -6.98 1.34 -8 1 C-6.68 1 -5.36 1 -4 1 C-4 1.66 -4 2.32 -4 3 C-3.34 3 -2.68 3 -2 3 C-1.67 3.99 -1.34 4.98 -1 6 C-0.34 6 0.32 6 1 6 C0.67 4.02 0.34 2.04 0 0 Z " fill="#C5C5C5" transform="translate(290,342)"/>
<path d="M0 0 C1.32 0.66 2.64 1.32 4 2 C4 2.66 4 3.32 4 4 C4.66 4.33 5.32 4.66 6 5 C-9.18 5 -24.36 5 -40 5 C-40 4.67 -40 4.34 -40 4 C-26.8 3.67 -13.6 3.34 0 3 C0 2.01 0 1.02 0 0 Z " fill="#0A090A" transform="translate(342,322)"/>
<path d="M0 0 C2.875 -0.125 2.875 -0.125 6 0 C8 2 8 2 8.125 4.625 C8.08375 5.40875 8.0425 6.1925 8 7 C5.6739143 7.38063221 3.33944736 7.71269945 1 8 C0 7 0 7 -0.0625 3.4375 C-0.041875 2.303125 -0.02125 1.16875 0 0 Z " fill="#A8A8A7" transform="translate(332,175)"/>
<path d="M0 0 C1.9375 1.125 1.9375 1.125 3 3 C3.38976435 6.11811483 3.50422245 8.11019567 1.9375 10.875 C-1.1069286 12.64273274 -3.5631012 12.36823916 -7 12 C-8.9375 10.875 -8.9375 10.875 -10 9 C-10.38976435 5.88188517 -10.50422245 3.88980433 -8.9375 1.125 C-5.8930714 -0.64273274 -3.4368988 -0.36823916 0 0 Z M-7.8125 2.1875 C-9.26103335 3.99801207 -9.26103335 3.99801207 -8.8125 6.5625 C-8.15372967 9.14441272 -8.15372967 9.14441272 -6 11 C-3.41645782 11.16687448 -3.41645782 11.16687448 -1 11 C-0.40267181 8.23735711 0 5.83967231 0 3 C-0.66 3 -1.32 3 -2 3 C-2 2.34 -2 1.68 -2 1 C-5.80350374 0.63464916 -5.80350374 0.63464916 -7.8125 2.1875 Z " fill="#8C8C8C" transform="translate(425,28)"/>
<path d="M0 0 C1.65 0.33 3.3 0.66 5 1 C5 2.98 5 4.96 5 7 C8.63 7.33 12.26 7.66 16 8 C16.33 8.99 16.66 9.98 17 11 C10.30324864 12.03026944 3.7685324 12.10152799 -3 12 C-3 11.67 -3 11.34 -3 11 C2.445 10.505 2.445 10.505 8 10 C6.68 9.34 5.36 8.68 4 8 C3.62633887 6.00714063 3.29259485 4.00636471 3 2 C2.01 1.34 1.02 0.68 0 0 Z " fill="#747474" transform="translate(396,323)"/>
<path d="M0 0 C1.01771484 0.00451172 2.03542969 0.00902344 3.08398438 0.01367188 C5.57688509 0.02537563 8.06966074 0.04177152 10.5625 0.0625 C10.5625 0.3925 10.5625 0.7225 10.5625 1.0625 C3.9625 1.7225 -2.6375 2.3825 -9.4375 3.0625 C-9.4375 3.3925 -9.4375 3.7225 -9.4375 4.0625 C-12.4075 4.0625 -15.3775 4.0625 -18.4375 4.0625 C-18.4375 3.0725 -18.4375 2.0825 -18.4375 1.0625 C-12.2698971 -0.03607724 -6.25334877 -0.05289104 0 0 Z " fill="#717171" transform="translate(168.4375,329.9375)"/>
<path d="M0 0 C0 0.66 0 1.32 0 2 C-2.97 2 -5.94 2 -9 2 C-9 3.65 -9 5.3 -9 7 C-8.34 7 -7.68 7 -7 7 C-7 7.99 -7 8.98 -7 10 C-5.35 10 -3.7 10 -2 10 C-2 9.34 -2 8.68 -2 8 C-1.01 8 -0.02 8 1 8 C1 6.02 1 4.04 1 2 C1.33 2 1.66 2 2 2 C2 4.64 2 7.28 2 10 C1.34 10 0.68 10 0 10 C0 10.66 0 11.32 0 12 C-1.27875 12.061875 -2.5575 12.12375 -3.875 12.1875 C-4.59429687 12.22230469 -5.31359375 12.25710937 -6.0546875 12.29296875 C-6.69664062 12.19628906 -7.33859375 12.09960938 -8 12 C-10.67927341 7.98108988 -10.15601248 5.75838077 -10 1 C-6.78548731 -0.60725635 -3.56387464 -0.05748185 0 0 Z " fill="#9C9C9D" transform="translate(388,210)"/>
<path d="M0 0 C0 0.66 0 1.32 0 2 C0.66 2 1.32 2 2 2 C2 2.66 2 3.32 2 4 C2.66 4 3.32 4 4 4 C4.21917317 6.70313576 4.32851983 8.43958382 2.9375 10.8125 C-0.02772524 12.62989611 -2.60485345 12.24691975 -6 12 C-6.66 11.67 -7.32 11.34 -8 11 C-8.97465209 7.7216248 -9.32345452 5.19834842 -8 2 C-4.77208445 -0.1519437 -3.71599191 -0.20086443 0 0 Z M-7 3 C-7.04241723 5.33294775 -7.04092937 7.66702567 -7 10 C-5.88163776 11.34404775 -5.88163776 11.34404775 -3 11.125 C-0.11836224 11.34404775 -0.11836224 11.34404775 1 10 C1.04092937 7.66702567 1.04241723 5.33294775 1 3 C-3.10223585 1.98459888 -3.10223585 1.98459888 -7 3 Z " fill="#A0A0A0" transform="translate(114,568)"/>
<path d="M0 0 C3.91665108 -0.02904864 7.8332744 -0.04681517 11.75 -0.0625 C12.86117188 -0.07087891 13.97234375 -0.07925781 15.1171875 -0.08789062 C16.18710937 -0.09111328 17.25703125 -0.09433594 18.359375 -0.09765625 C19.34389648 -0.10289307 20.32841797 -0.10812988 21.34277344 -0.11352539 C23.72869514 -0.01159103 25.72164581 0.31696643 28 1 C28 1.66 28 2.32 28 3 C23.05 3 18.1 3 13 3 C13 2.34 13 1.68 13 1 C8.71 1 4.42 1 0 1 C0 0.67 0 0.34 0 0 Z " fill="#545455" transform="translate(412,331)"/>
<path d="M0 0 C0.33 0 0.66 0 1 0 C1.33 4.62 1.66 9.24 2 14 C2.66 13.67 3.32 13.34 4 13 C4.05423638 14.91635217 4.09289963 16.83314925 4.125 18.75 C4.14820313 19.81734375 4.17140625 20.8846875 4.1953125 21.984375 C4.00487687 24.92470106 3.52670104 26.52361878 2 29 C0.06368829 22.53546326 -0.24556441 16.72378423 -0.125 10 C-0.11597656 9.03449219 -0.10695313 8.06898438 -0.09765625 7.07421875 C-0.07430635 4.71587901 -0.04156047 2.35807714 0 0 Z " fill="#3F3F40" transform="translate(275,476)"/>
<path d="M0 0 C2.31 0 4.62 0 7 0 C7 2.31 7 4.62 7 7 C4.125 7.125 4.125 7.125 1 7 C0.34 6.34 -0.32 5.68 -1 5 C-0.625 2.375 -0.625 2.375 0 0 Z " fill="#C8C8C9" transform="translate(544,428)"/>
<path d="M0 0 C0.33 0 0.66 0 1 0 C1 5.94 1 11.88 1 18 C5.74178376 16.18664073 5.74178376 16.18664073 9 13 C9.66 13.33 10.32 13.66 11 14 C7.82679218 17.53586014 5.83256305 19.58578031 1 20 C1 20.99 1 21.98 1 23 C0.01 23 -0.98 23 -2 23 C-1.34 15.41 -0.68 7.82 0 0 Z " fill="#767578" transform="translate(282,299)"/>
<path d="M0 0 C0 0.99 0 1.98 0 3 C-2.77936338 3.92645446 -4.25743922 4.10056322 -7.10424805 4.02172852 C-7.92487228 4.00163223 -8.74549652 3.98153595 -9.59098816 3.96083069 C-10.47232925 3.93379562 -11.35367035 3.90676056 -12.26171875 3.87890625 C-13.16751175 3.85529526 -14.07330475 3.83168427 -15.00654602 3.80735779 C-17.90035865 3.73076856 -20.79390048 3.64672369 -23.6875 3.5625 C-25.64907528 3.50927458 -27.61066378 3.45653421 -29.57226562 3.40429688 C-34.38168199 3.27515978 -39.19086873 3.13933558 -44 3 C-44 2.67 -44 2.34 -44 2 C-42.73816895 1.97494385 -41.47633789 1.9498877 -40.17626953 1.92407227 C-35.50591431 1.83007894 -30.83571063 1.72983869 -26.16552734 1.62768555 C-24.14212584 1.58430605 -22.11868701 1.54263322 -20.09521484 1.50268555 C-17.19096616 1.44505592 -14.28690589 1.3813406 -11.3828125 1.31640625 C-10.47443634 1.29969376 -9.56606018 1.28298126 -8.63015747 1.26576233 C-7.78943695 1.24581711 -6.94871643 1.22587189 -6.08251953 1.20532227 C-4.96999313 1.18200584 -4.96999313 1.18200584 -3.83499146 1.15821838 C-1.90325896 1.10526504 -1.90325896 1.10526504 0 0 Z " fill="#868586" transform="translate(248,327)"/>
<path d="M0 0 C2.5 0.125 2.5 0.125 3.5 1.125 C3.6875 3.5625 3.6875 3.5625 3.5 6.125 C2.84 6.785 2.18 7.445 1.5 8.125 C-1.125 7.75 -1.125 7.75 -3.5 7.125 C-3.54254356 5.12545254 -3.54080783 3.12458364 -3.5 1.125 C-2.5 0.125 -2.5 0.125 0 0 Z " fill="#989897" transform="translate(400.5,477.875)"/>
<path d="M0 0 C0 0.66 0 1.32 0 2 C0.66 2 1.32 2 2 2 C2 3.98 2 5.96 2 8 C-0.875 8.125 -0.875 8.125 -4 8 C-4.66 7.34 -5.32 6.68 -6 6 C-5.8125 4 -5.8125 4 -5 2 C-2 0 -2 0 0 0 Z " fill="#B9B8B9" transform="translate(412,59)"/>
<path d="M0 0 C1.32 0 2.64 0 4 0 C4 0.66 4 1.32 4 2 C4.66 2 5.32 2 6 2 C6.042721 3.66611905 6.04063832 5.33382885 6 7 C5 8 5 8 2.4375 8.0625 C1.633125 8.041875 0.82875 8.02125 0 8 C-1.125 2.25 -1.125 2.25 0 0 Z " fill="#C8C8C8" transform="translate(44,546)"/>
<path d="M0 0 C1.32 0 2.64 0 4 0 C5.125 5.75 5.125 5.75 4 8 C2.35 8 0.7 8 -1 8 C-1.625 5.125 -1.625 5.125 -2 2 C-1.34 1.34 -0.68 0.68 0 0 Z " fill="#BABABA" transform="translate(457,489)"/>
<path d="M0 0 C1.32 0 2.64 0 4 0 C4 2 4 2 2.625 3.625 C1 5 1 5 -1 5 C-1.268125 5.61875 -1.53625 6.2375 -1.8125 6.875 C-3 9 -3 9 -6 11 C-6 10.34 -6 9.68 -6 9 C-6.99 9.33 -7.98 9.66 -9 10 C-9 8 -9 8 -7.5390625 6.4921875 C-6.90742188 5.95851563 -6.27578125 5.42484375 -5.625 4.875 C-4.99851562 4.33617187 -4.37203125 3.79734375 -3.7265625 3.2421875 C-2 2 -2 2 0 2 C0 1.34 0 0.68 0 0 Z " fill="#4B4B4C" transform="translate(330,276)"/>
<path d="M0 0 C0.33 1.32 0.66 2.64 1 4 C1.66 4 2.32 4 3 4 C3.09945415 10.11090483 3.0712828 15.97403427 2 22 C1.67 22 1.34 22 1 22 C0.08839714 14.64206267 -0.11459026 7.41017023 0 0 Z " fill="#626263" transform="translate(276,457)"/>
<path d="M0 0 C1.32 0 2.64 0 4 0 C4.33 1.98 4.66 3.96 5 6 C0.25 7.125 0.25 7.125 -2 6 C-1.125 1.125 -1.125 1.125 0 0 Z " fill="#ACABAB" transform="translate(131,186)"/>
<path d="M0 0 C0.66 0 1.32 0 2 0 C2.70226141 1.24176695 3.38629109 2.49385599 4.0625 3.75 C4.44535156 4.44609375 4.82820313 5.1421875 5.22265625 5.859375 C6.1312406 8.36140628 5.88336837 9.5332355 5 12 C4.01 11.67 3.02 11.34 2 11 C2 10.01 2 9.02 2 8 C1.34 8 0.68 8 0 8 C-1.09658936 4.71023192 -0.79953138 3.28696233 0 0 Z " fill="#DEDDDE" transform="translate(286,337)"/>
<path d="M0 0 C3.63 0 7.26 0 11 0 C10.67 0.99 10.34 1.98 10 3 C3.73 3 -2.54 3 -9 3 C-9 2.67 -9 2.34 -9 2 C-6.03 2 -3.06 2 0 2 C0 1.34 0 0.68 0 0 Z " fill="#949394" transform="translate(383,332)"/>
<path d="M0 0 C-1.4859916 4.59306496 -3.85014682 7.43569245 -7 11 C-7.33 10.01 -7.66 9.02 -8 8 C-8.66 8 -9.32 8 -10 8 C-10 7.34 -10 6.68 -10 6 C-9.34 6 -8.68 6 -8 6 C-8 5.34 -8 4.68 -8 4 C-2.58823529 0 -2.58823529 0 0 0 Z " fill="#A9A8A8" transform="translate(324,285)"/>
<path d="M0 0 C1.98 0 3.96 0 6 0 C5.67 0.66 5.34 1.32 5 2 C2.4375 2.625 2.4375 2.625 0 3 C0 3.66 0 4.32 0 5 C-0.66 5 -1.32 5 -2 5 C-1.67 7.64 -1.34 10.28 -1 13 C-1.99 12.67 -2.98 12.34 -4 12 C-5.3442623 6.62295082 -5.3442623 6.62295082 -3.6875 3.625 C-2 2 -2 2 0 2 C0 1.34 0 0.68 0 0 Z " fill="#AAAAA9" transform="translate(349,9)"/>
<path d="M0 0 C0 3.11227195 -0.45627049 5.94152152 -1 9 C-2.65 9 -4.3 9 -6 9 C-6 6.69 -6 4.38 -6 2 C-4.02 1.34 -2.04 0.68 0 0 Z " fill="#3E3E3E" transform="translate(272,455)"/>
<path d="M0 0 C0.33 0.66 0.66 1.32 1 2 C0.34 2 -0.32 2 -1 2 C-0.67 3.32 -0.34 4.64 0 6 C1.32 5.67 2.64 5.34 4 5 C4 5.99 4 6.98 4 8 C4.99 8.33 5.98 8.66 7 9 C3.7 9 0.4 9 -3 9 C-3 8.34 -3 7.68 -3 7 C-3.66 7 -4.32 7 -5 7 C-5 6.01 -5 5.02 -5 4 C-4.01 4 -3.02 4 -2 4 C-2 3.01 -2 2.02 -2 1 C-1.34 0.67 -0.68 0.34 0 0 Z " fill="#D5D2D1" transform="translate(285,318)"/>
<path d="M0 0 C1.66611905 -0.042721 3.33382885 -0.04063832 5 0 C6 1 6 1 6.0625 4.0625 C6.041875 5.031875 6.02125 6.00125 6 7 C4.35 7 2.7 7 1 7 C0.67 4.69 0.34 2.38 0 0 Z " fill="#C1C1C1" transform="translate(394,175)"/>
<path d="M0 0 C0.66 0.33 1.32 0.66 2 1 C1.67 1.66 1.34 2.32 1 3 C1.66 3.33 2.32 3.66 3 4 C0.86521834 7.20217249 -0.62795029 8.27285259 -4 10 C-4.99 10 -5.98 10 -7 10 C-4.93992341 6.39486597 -2.6486859 3.19668988 0 0 Z " fill="#7D7C7D" transform="translate(234,374)"/>
<path d="M0 0 C-1.57413417 4.09274885 -4.54102377 7.35956013 -8 10 C-8.99 10 -9.98 10 -11 10 C-10.67 9.01 -10.34 8.02 -10 7 C-9.34 7 -8.68 7 -8 7 C-7.9175 6.401875 -7.835 5.80375 -7.75 5.1875 C-6.40138854 1.25404992 -4.03742556 0 0 0 Z " fill="#E1E0E1" transform="translate(254,359)"/>
<path d="M0 0 C2.31 0 4.62 0 7 0 C6.67 0.66 6.34 1.32 6 2 C4.35 2 2.7 2 1 2 C1 3.65 1 5.3 1 7 C-0.65 7 -2.3 7 -4 7 C-4 5.35 -4 3.7 -4 2 C-2.68 2 -1.36 2 0 2 C0 1.34 0 0.68 0 0 Z " fill="#5C5C5C" transform="translate(420,336)"/>
<path d="M0 0 C0.99 0.33 1.98 0.66 3 1 C3 1.99 3 2.98 3 4 C2.34 4 1.68 4 1 4 C1 4.66 1 5.32 1 6 C-1.5614657 8.29648649 -2.47967572 9 -6 9 C-4.68775452 5.06326356 -3.08089673 2.77280706 0 0 Z " fill="#ECECE8" transform="translate(261,348)"/>
<path d="M0 0 C6.0018137 -0.21824777 11.19233704 0.4943096 17 2 C17 2.99 17 3.98 17 5 C13.04 5 9.08 5 5 5 C5 4.67 5 4.34 5 4 C7.64 4 10.28 4 13 4 C13 3.34 13 2.68 13 2 C8.71 1.67 4.42 1.34 0 1 C0 0.67 0 0.34 0 0 Z " fill="#C4C2C4" transform="translate(348,330)"/>
<path d="M0 0 C0.66 0.33 1.32 0.66 2 1 C1.01 2.485 1.01 2.485 0 4 C0.66 4 1.32 4 2 4 C2 4.99 2 5.98 2 7 C3.65 7 5.3 7 7 7 C7 6.34 7 5.68 7 5 C7.66 5 8.32 5 9 5 C8.67 3.35 8.34 1.7 8 0 C8.66 0.33 9.32 0.66 10 1 C10.36075949 5.44936709 10.36075949 5.44936709 8.8125 7.8125 C6.35092224 9.42525784 4.88934264 9.4334014 2 9 C0.1875 7.8125 0.1875 7.8125 -1 6 C-1.25 3.375 -1.25 3.375 -1 1 C-0.67 0.67 -0.34 0.34 0 0 Z " fill="#AEAEAF" transform="translate(395,272)"/>
<path d="M0 0 C1.98 0 3.96 0 6 0 C6 1.98 6 3.96 6 6 C4.02 6 2.04 6 0 6 C0 4.02 0 2.04 0 0 Z " fill="#CDCDCD" transform="translate(68,583)"/>
<path d="M0 0 C1.65 0 3.3 0 5 0 C5.38218767 1.65614657 5.71395102 3.32457024 6 5 C5 6 5 6 2.4375 6.0625 C1.2309375 6.0315625 1.2309375 6.0315625 0 6 C-1.125 2.25 -1.125 2.25 0 0 Z " fill="#CACACA" transform="translate(68,477)"/>
<path d="M0 0 C0.99 0 1.98 0 3 0 C3 4.29 3 8.58 3 13 C2.34 13 1.68 13 1 13 C0.1276588 10.00519083 -0.10829766 7.36424089 -0.0625 4.25 C-0.05347656 3.45078125 -0.04445313 2.6515625 -0.03515625 1.828125 C-0.02355469 1.22484375 -0.01195312 0.6215625 0 0 Z " fill="#787879" transform="translate(276,448)"/>
<path d="M0 0 C3.63 0 7.26 0 11 0 C11 0.66 11 1.32 11 2 C13.64 2 16.28 2 19 2 C19 2.33 19 2.66 19 3 C13.72 3 8.44 3 3 3 C3 2.34 3 1.68 3 1 C2.01 0.67 1.02 0.34 0 0 Z " fill="#858485" transform="translate(156,332)"/>
<path d="M0 0 C1.98 0 3.96 0 6 0 C6 1.98 6 3.96 6 6 C4.33388095 6.042721 2.66617115 6.04063832 1 6 C0 5 0 5 -0.0625 2.4375 C-0.041875 1.633125 -0.02125 0.82875 0 0 Z " fill="#C9C9C9" transform="translate(91,9)"/>
<path d="M0 0 C0.37769531 0.50144531 0.75539063 1.00289063 1.14453125 1.51953125 C0.81453125 2.17953125 0.48453125 2.83953125 0.14453125 3.51953125 C0.80453125 3.84953125 1.46453125 4.17953125 2.14453125 4.51953125 C-0.49546875 5.17953125 -3.13546875 5.83953125 -5.85546875 6.51953125 C-6.18546875 5.52953125 -6.51546875 4.53953125 -6.85546875 3.51953125 C-6.21609375 3.39578125 -5.57671875 3.27203125 -4.91796875 3.14453125 C-4.23734375 2.93828125 -3.55671875 2.73203125 -2.85546875 2.51953125 C-2.52546875 1.85953125 -2.19546875 1.19953125 -1.85546875 0.51953125 C-5.48546875 0.51953125 -9.11546875 0.51953125 -12.85546875 0.51953125 C-12.85546875 0.18953125 -12.85546875 -0.14046875 -12.85546875 -0.48046875 C-11.08733763 -0.72962814 -9.31571893 -0.95413507 -7.54296875 -1.16796875 C-6.55683594 -1.29558594 -5.57070313 -1.42320312 -4.5546875 -1.5546875 C-1.85546875 -1.48046875 -1.85546875 -1.48046875 0 0 Z " fill="#2B2A2B" transform="translate(472.85546875,331.48046875)"/>
<path d="M0 0 C0.33 1.32 0.66 2.64 1 4 C2.32 3.67 3.64 3.34 5 3 C5.33 4.32 5.66 5.64 6 7 C6.33 4.69 6.66 2.38 7 0 C7.33 0 7.66 0 8 0 C8 2.97 8 5.94 8 9 C5.03 8.505 5.03 8.505 2 8 C2 7.34 2 6.68 2 6 C1.34 6 0.68 6 0 6 C0 4.02 0 2.04 0 0 Z " fill="#BEBEBE" transform="translate(406,297)"/>
<path d="M0 0 C0.66 0 1.32 0 2 0 C2 0.66 2 1.32 2 2 C2.66 2 3.32 2 4 2 C4 3.65 4 5.3 4 7 C2.35 7 0.7 7 -1 7 C-1.625 4.625 -1.625 4.625 -2 2 C-1.34 1.34 -0.68 0.68 0 0 Z " fill="#A1A0A1" transform="translate(327,97)"/>
<path d="M0 0 C1.65 0 3.3 0 5 0 C5.66 1.32 6.32 2.64 7 4 C6.34 4.66 5.68 5.32 5 6 C3.68 6 2.36 6 1 6 C0.67 4.02 0.34 2.04 0 0 Z " fill="#ADADAC" transform="translate(485,16)"/>
<path d="M0 0 C1.65 0 3.3 0 5 0 C5.33 1.65 5.66 3.3 6 5 C4.34385343 5.38218767 2.67542976 5.71395102 1 6 C0 5 0 5 -0.0625 2.4375 C-0.041875 1.633125 -0.02125 0.82875 0 0 Z " fill="#B8B8B8" transform="translate(451,449)"/>
<path d="M0 0 C0 3.96 0 7.92 0 12 C-0.99 11.67 -1.98 11.34 -3 11 C-3 7.7 -3 4.4 -3 1 C-1 0 -1 0 0 0 Z " fill="#D5D5D6" transform="translate(279,411)"/>
<path d="M0 0 C1.65 0 3.3 0 5 0 C5 1.98 5 3.96 5 6 C3.68 6 2.36 6 1 6 C0.67 6.66 0.34 7.32 0 8 C0 5.36 0 2.72 0 0 Z " fill="#9E9E9E" transform="translate(331,555)"/>
<path d="M0 0 C0.66 0.99 1.32 1.98 2 3 C0.25 5 0.25 5 -2 7 C-3.32 7 -4.64 7 -6 7 C-5.67 5.02 -5.34 3.04 -5 1 C-3.35 0.67 -1.7 0.34 0 0 Z " fill="#2A2A2D" transform="translate(289,310)"/>
<path d="M0 0 C1.32 0.33 2.64 0.66 4 1 C4 1.66 4 2.32 4 3 C5.32 3.33 6.64 3.66 8 4 C8 4.66 8 5.32 8 6 C7.34 6 6.68 6 6 6 C6.33 6.99 6.66 7.98 7 9 C6.34 9 5.68 9 5 9 C0 3.64285714 0 3.64285714 0 0 Z " fill="#797878" transform="translate(226,280)"/>
<path d="M0 0 C1.98 0 3.96 0 6 0 C6 1.65 6 3.3 6 5 C4.125 5.625 4.125 5.625 2 6 C1.34 5.34 0.68 4.68 0 4 C0 2.68 0 1.36 0 0 Z " fill="#BDBDBD" transform="translate(403,402)"/>
<path d="M0 0 C0.33 0.66 0.66 1.32 1 2 C1.99 2.33 2.98 2.66 4 3 C3.1875 4.9375 3.1875 4.9375 2 7 C1.01 7.33 0.02 7.66 -1 8 C-1 7.34 -1 6.68 -1 6 C-0.34 6 0.32 6 1 6 C0.67 5.01 0.34 4.02 0 3 C-0.66 2.67 -1.32 2.34 -2 2 C-2.33 2.99 -2.66 3.98 -3 5 C-5.5625 6.6875 -5.5625 6.6875 -8 8 C-6.79618552 5.50638429 -5.54571278 3.31856917 -4 1 C-1.875 0.3125 -1.875 0.3125 0 0 Z " fill="#B6B6B2" transform="translate(263,346)"/>
<path d="M0 0 C1.98 0 3.96 0 6 0 C6 1.65 6 3.3 6 5 C4.02 5 2.04 5 0 5 C0 3.35 0 1.7 0 0 Z " fill="#B9B8B9" transform="translate(344,525)"/>
<path d="M0 0 C1.32 0.66 2.64 1.32 4 2 C3.6875 4.375 3.6875 4.375 3 7 C2.01 7.66 1.02 8.32 0 9 C-1.125 2.25 -1.125 2.25 0 0 Z " fill="#3B3B3A" transform="translate(260,338)"/>
<path d="M0 0 C1.98 0 3.96 0 6 0 C5.67 1.65 5.34 3.3 5 5 C3.35 5 1.7 5 0 5 C0 3.35 0 1.7 0 0 Z " fill="#8E8D8E" transform="translate(342,461)"/>
<path d="M0 0 C1.65 0 3.3 0 5 0 C5 1.65 5 3.3 5 5 C3.02 5 1.04 5 -1 5 C-0.67 3.35 -0.34 1.7 0 0 Z " fill="#E8E8E8" transform="translate(372,458)"/>
<path d="M0 0 C2.86724686 0.57344937 3.8614515 0.8614515 6 3 C5.625 5.125 5.625 5.125 5 7 C3.68 6.67 2.36 6.34 1 6 C0.67 4.02 0.34 2.04 0 0 Z " fill="#E7E6E8" transform="translate(293,349)"/>
<path d="M0 0 C0 0.33 0 0.66 0 1 C-1.98 1 -3.96 1 -6 1 C-6 1.66 -6 2.32 -6 3 C-9.3 3 -12.6 3 -16 3 C-16 2.34 -16 1.68 -16 1 C-10.61509359 0.08342019 -5.45769811 -0.11138159 0 0 Z " fill="#464646" transform="translate(128,331)"/>
<path d="M0 0 C1.32 0.66 2.64 1.32 4 2 C4 3.32 4 4.64 4 6 C2.35 6 0.7 6 -1 6 C-1.625 4.125 -1.625 4.125 -2 2 C-1.34 1.34 -0.68 0.68 0 0 Z " fill="#B4B4B4" transform="translate(209,106)"/>
<path d="M0 0 C0.66 0 1.32 0 2 0 C2 0.66 2 1.32 2 2 C2.66 2 3.32 2 4 2 C4.33 3.65 4.66 5.3 5 7 C1.62537285 6.45276317 -0.08235 5.9451 -3 4 C-2.67 3.34 -2.34 2.68 -2 2 C-1.01 2.33 -0.02 2.66 1 3 C0.67 2.01 0.34 1.02 0 0 Z " fill="#898989" transform="translate(317,372)"/>
<path d="M0 0 C6.27 0 12.54 0 19 0 C19 0.33 19 0.66 19 1 C13.72 1 8.44 1 3 1 C3 1.99 3 2.98 3 4 C2.01 4 1.02 4 0 4 C0 2.68 0 1.36 0 0 Z " fill="#979596" transform="translate(216,336)"/>
<path d="M0 0 C1.32 0 2.64 0 4 0 C4 1.65 4 3.3 4 5 C5.62580966 4.88601335 7.25067157 4.75844341 8.875 4.625 C10.23238281 4.52058594 10.23238281 4.52058594 11.6171875 4.4140625 C14.17941903 4.20431868 14.17941903 4.20431868 16 2 C16.33 3.32 16.66 4.64 17 6 C12.38 6 7.76 6 3 6 C3 4.35 3 2.7 3 1 C2.01 0.67 1.02 0.34 0 0 Z " fill="#636261" transform="translate(249,322)"/>
<path d="M0 0 C1.37562854 1.28965176 2.70766393 2.62689293 4 4 C4 4.66 4 5.32 4 6 C4.66 6 5.32 6 6 6 C6 6.99 6 7.98 6 9 C6.66 9.33 7.32 9.66 8 10 C7.01 10 6.02 10 5 10 C5 9.01 5 8.02 5 7 C3.35 7 1.7 7 0 7 C0 4.69 0 2.38 0 0 Z " fill="#EAECE8" transform="translate(274,316)"/>
<path d="M0 0 C1.32 0 2.64 0 4 0 C4 1.98 4 3.96 4 6 C2.68 6 1.36 6 0 6 C-0.38218767 4.34385343 -0.71395102 2.67542976 -1 1 C-0.67 0.67 -0.34 0.34 0 0 Z " fill="#DADADA" transform="translate(517,423)"/>
<path d="M0 0 C0 0.99 0 1.98 0 3 C-0.66 3.66 -1.32 4.32 -2 5 C-2.99 5 -3.98 5 -5 5 C-5 5.66 -5 6.32 -5 7 C-6.32 7.33 -7.64 7.66 -9 8 C-7.75023244 4.34683329 -7.32901247 3.21934164 -4 1 C-3.67 1.66 -3.34 2.32 -3 3 C-2.01 2.01 -1.02 1.02 0 0 Z " fill="#4D4C4D" transform="translate(232,381)"/>
<path d="M0 0 C2.97 0.495 2.97 0.495 6 1 C6 2.32 6 3.64 6 5 C4.35 5 2.7 5 1 5 C0.67 3.35 0.34 1.7 0 0 Z " fill="#EEEEEF" transform="translate(8,368)"/>
<path d="M0 0 C0.66 0 1.32 0 2 0 C1.67 2.64 1.34 5.28 1 8 C-0.65 7.67 -2.3 7.34 -4 7 C-4 6.01 -4 5.02 -4 4 C-2.68 4 -1.36 4 0 4 C0 2.68 0 1.36 0 0 Z " fill="#5C5C5B" transform="translate(131,356)"/>
<path d="M0 0 C3.63 0 7.26 0 11 0 C10.67 0.99 10.34 1.98 10 3 C7.03 3 4.06 3 1 3 C0.67 2.01 0.34 1.02 0 0 Z " fill="#414141" transform="translate(99,331)"/>
<path d="M0 0 C1.32 0.66 2.64 1.32 4 2 C3.67 3.32 3.34 4.64 3 6 C1.68 6 0.36 6 -1 6 C-1.625 4.125 -1.625 4.125 -2 2 C-1.34 1.34 -0.68 0.68 0 0 Z " fill="#A4A3A3" transform="translate(136,534)"/>
<path d="M0 0 C1.98 0 3.96 0 6 0 C6 1.65 6 3.3 6 5 C4.68 5 3.36 5 2 5 C2 4.34 2 3.68 2 3 C1.34 3 0.68 3 0 3 C0 2.01 0 1.02 0 0 Z " fill="#A1A1A1" transform="translate(110,180)"/>
<path d="M0 0 C0.99 0 1.98 0 3 0 C3 0.66 3 1.32 3 2 C3.66 2 4.32 2 5 2 C5 3.32 5 4.64 5 6 C3.35 5.67 1.7 5.34 0 5 C0 3.35 0 1.7 0 0 Z " fill="#B1B1B0" transform="translate(494,428)"/>
<path d="M0 0 C1.65 0 3.3 0 5 0 C5 1.65 5 3.3 5 5 C3.35 5 1.7 5 0 5 C0 3.35 0 1.7 0 0 Z " fill="#A4A4A5" transform="translate(54,404)"/>
<path d="M0 0 C1.65 0 3.3 0 5 0 C5 1.65 5 3.3 5 5 C3.35 5 1.7 5 0 5 C0 3.35 0 1.7 0 0 Z " fill="#A2A1A0" transform="translate(515,359)"/>
<path d="M0 0 C2.31 0 4.62 0 7 0 C6.50168276 3.68754757 5.89932357 5.60490662 3 8 C3.061875 7.236875 3.12375 6.47375 3.1875 5.6875 C3.25898085 2.95474688 3.25898085 2.95474688 1.5 1.1875 C1.005 0.795625 0.51 0.40375 0 0 Z " fill="#82807E" transform="translate(260,337)"/>
<path d="M0 0 C0.91007813 0.00902344 1.82015625 0.01804687 2.7578125 0.02734375 C3.45648438 0.03894531 4.15515625 0.05054688 4.875 0.0625 C0.70244729 3.64300131 -1.79364045 3.32906798 -7.125 3.0625 C-7.125 2.4025 -7.125 1.7425 -7.125 1.0625 C-4.60024538 -0.19987731 -2.81299534 -0.03606404 0 0 Z " fill="#929192" transform="translate(174.125,330.9375)"/>
<path d="M0 0 C0.66 0.33 1.32 0.66 2 1 C2 1.66 2 2.32 2 3 C2.66 3 3.32 3 4 3 C4 3.99 4 4.98 4 6 C3.01 6 2.02 6 1 6 C0.67 6.99 0.34 7.98 0 9 C-1.10844919 5.67465243 -0.84454356 3.37817425 0 0 Z " fill="#312F2E" transform="translate(253,312)"/>
<path d="M0 0 C0.99 0 1.98 0 3 0 C2.60196439 2.88575819 2.20990931 3.82189513 -0.0625 5.75 C-0.701875 6.1625 -1.34125 6.575 -2 7 C-2.66 6.34 -3.32 5.68 -4 5 C-2.1875 2.5 -2.1875 2.5 0 0 Z " fill="#CECECF" transform="translate(313,293)"/>
<path d="M0 0 C0.66 0.33 1.32 0.66 2 1 C1.67 2.65 1.34 4.3 1 6 C-0.65 5.67 -2.3 5.34 -4 5 C-3.6875 3.0625 -3.6875 3.0625 -3 1 C-2.01 0.67 -1.02 0.34 0 0 Z " fill="#757575" transform="translate(131,249)"/>
<path d="M0 0 C2.31 0 4.62 0 7 0 C8.61949011 2.57213134 9.04408751 3.67669159 8.625 6.75 C8.41875 7.4925 8.2125 8.235 8 9 C7.34 8.01 6.68 7.02 6 6 C6.33 5.01 6.66 4.02 7 3 C6.34 3 5.68 3 5 3 C5 2.34 5 1.68 5 1 C3.02 1.33 1.04 1.66 -1 2 C-0.67 1.34 -0.34 0.68 0 0 Z " fill="#B6B5B6" transform="translate(418,28)"/>
<path d="M0 0 C1.65 0 3.3 0 5 0 C5 1.65 5 3.3 5 5 C3.35 5 1.7 5 0 5 C0 3.35 0 1.7 0 0 Z " fill="#A5A4A5" transform="translate(49,9)"/>
<path d="M0 0 C1.62463842 -0.05395478 3.24978541 -0.09277195 4.875 -0.125 C5.77992188 -0.14820313 6.68484375 -0.17140625 7.6171875 -0.1953125 C10 0 10 0 12 2 C8.7 2 5.4 2 2 2 C1.67 2.66 1.34 3.32 1 4 C0.67 2.68 0.34 1.36 0 0 Z " fill="#413F44" transform="translate(288,338)"/>
<path d="M0 0 C5.75 1.875 5.75 1.875 8 3 C8 3.66 8 4.32 8 5 C5.525 4.01 5.525 4.01 3 3 C3.33 4.32 3.66 5.64 4 7 C2 5.1875 2 5.1875 0 3 C0 2.01 0 1.02 0 0 Z " fill="#BBBAB9" transform="translate(238,292)"/>
<path d="M0 0 C2.475 0.495 2.475 0.495 5 1 C5 2.32 5 3.64 5 5 C3.35 5 1.7 5 0 5 C0 3.35 0 1.7 0 0 Z " fill="#B7B7B6" transform="translate(51,154)"/>
<path d="M0 0 C2.475 0.495 2.475 0.495 5 1 C5 2.32 5 3.64 5 5 C3.35 5 1.7 5 0 5 C0 3.35 0 1.7 0 0 Z " fill="#A6A5A5" transform="translate(141,154)"/>
<path d="M0 0 C1.32 0 2.64 0 4 0 C4 1.65 4 3.3 4 5 C2.35 5 0.7 5 -1 5 C-0.67 3.35 -0.34 1.7 0 0 Z " fill="#A1A0A0" transform="translate(402,130)"/>
<path d="M0 0 C1.65 0 3.3 0 5 0 C5 1.65 5 3.3 5 5 C3.35 4.67 1.7 4.34 0 4 C0 2.68 0 1.36 0 0 Z " fill="#888788" transform="translate(144,94)"/>
<path d="M0 0 C0.66 0 1.32 0 2 0 C2 0.66 2 1.32 2 2 C2.99 2 3.98 2 5 2 C5.66 3.65 6.32 5.3 7 7 C4.20171644 6.61402985 3.1794116 6.19863427 1.25 4.0625 C0 2 0 2 0 0 Z " fill="#EDECED" transform="translate(300,357)"/>
<path d="M0 0 C1.65 0 3.3 0 5 0 C4.67 1.65 4.34 3.3 4 5 C2.68 4.67 1.36 4.34 0 4 C0 2.68 0 1.36 0 0 Z " fill="#E5E5E4" transform="translate(119,278)"/>
<path d="M0 0 C2.475 0.495 2.475 0.495 5 1 C5 2.32 5 3.64 5 5 C3.35 5 1.7 5 0 5 C0 3.35 0 1.7 0 0 Z " fill="#878687" transform="translate(456,234)"/>
<path d="M0 0 C0 0.66 0 1.32 0 2 C0.66 2 1.32 2 2 2 C2.33 3.32 2.66 4.64 3 6 C-1.75 4.125 -1.75 4.125 -4 3 C-4 2.34 -4 1.68 -4 1 C-2 0 -2 0 0 0 Z " fill="#3A393A" transform="translate(331,385)"/>
<path d="M0 0 C0.33 0.66 0.66 1.32 1 2 C0.67 2.66 0.34 3.32 0 4 C0.66 4.33 1.32 4.66 2 5 C0.6875 6.5 0.6875 6.5 -1 8 C-1.99 8 -2.98 8 -4 8 C-2.87548273 5.0280615 -1.77706209 2.66559313 0 0 Z " fill="#9E9E9D" transform="translate(239,369)"/>
<path d="M0 0 C0.33 1.32 0.66 2.64 1 4 C0.01 4.495 0.01 4.495 -1 5 C-1 5.66 -1 6.32 -1 7 C-1.99 7.33 -2.98 7.66 -4 8 C-4.66 7.34 -5.32 6.68 -6 6 C-4.02 4.02 -2.04 2.04 0 0 Z " fill="#444344" transform="translate(247,367)"/>
<path d="M0 0 C1.65 0 3.3 0 5 0 C4.67 1.32 4.34 2.64 4 4 C2.68 4.33 1.36 4.66 0 5 C0 3.35 0 1.7 0 0 Z " fill="#999898" transform="translate(494,350)"/>
<path d="M0 0 C1.17539996 0.92652701 2.34010577 1.86663387 3.5 2.8125 C4.1496875 3.33457031 4.799375 3.85664063 5.46875 4.39453125 C7 6 7 6 7 9 C4.625 8.4375 4.625 8.4375 2 7 C0.6875 3.375 0.6875 3.375 0 0 Z " fill="#A2A1A3" transform="translate(290,342)"/>
<path d="M0 0 C2.31 0 4.62 0 7 0 C7 0.99 7 1.98 7 3 C4.36 3 1.72 3 -1 3 C-0.67 2.01 -0.34 1.02 0 0 Z " fill="#BFBFC0" transform="translate(185,331)"/>
<path d="M0 0 C0.99 0 1.98 0 3 0 C3.33 2.31 3.66 4.62 4 7 C3.34 7 2.68 7 2 7 C1.67 5.68 1.34 4.36 1 3 C0.34 3 -0.32 3 -1 3 C-0.67 2.01 -0.34 1.02 0 0 Z " fill="#F8F7F7" transform="translate(259,313)"/>
<path d="M0 0 C-0.3125 1.875 -0.3125 1.875 -1 4 C-1.99 4.66 -2.98 5.32 -4 6 C-4 5.34 -4 4.68 -4 4 C-4.99 4.33 -5.98 4.66 -7 5 C-7 4.34 -7 3.68 -7 3 C-4.4385343 0.70351351 -3.52032428 0 0 0 Z " fill="#6A6969" transform="translate(328,281)"/>
<path d="M0 0 C3.36720387 1.39332574 4.9859524 2.9789286 7 6 C6.21625 5.814375 5.4325 5.62875 4.625 5.4375 C2.02910225 4.74037734 2.02910225 4.74037734 0 6 C0 4.02 0 2.04 0 0 Z " fill="#322F32" transform="translate(283,346)"/>
<path d="M0 0 C1.32 0 2.64 0 4 0 C4 1.98 4 3.96 4 6 C3.01 6 2.02 6 1 6 C0.67 4.02 0.34 2.04 0 0 Z " fill="#BAB9B9" transform="translate(313,347)"/>
<path d="M0 0 C1.65 0 3.3 0 5 0 C5 1.32 5 2.64 5 4 C3.35 4.33 1.7 4.66 0 5 C0 3.35 0 1.7 0 0 Z " fill="#F2F1F2" transform="translate(38,342)"/>
<path d="M0 0 C2.97 0.495 2.97 0.495 6 1 C6 3.31 6 5.62 6 8 C5.67 8 5.34 8 5 8 C5 6.02 5 4.04 5 2 C2.69 2.66 0.38 3.32 -2 4 C-1.34 2.68 -0.68 1.36 0 0 Z " fill="#EBEAEB" transform="translate(508,341)"/>
<path d="M0 0 C2.64 0 5.28 0 8 0 C6 3 6 3 3.875 3.6875 C2.946875 3.8421875 2.946875 3.8421875 2 4 C1.34 2.68 0.68 1.36 0 0 Z " fill="#2D2D2F" transform="translate(290,340)"/>
<path d="M0 0 C1.65 0 3.3 0 5 0 C5 0.99 5 1.98 5 3 C4.34 3 3.68 3 3 3 C3 3.66 3 4.32 3 5 C2.01 5 1.02 5 0 5 C0 3.35 0 1.7 0 0 Z " fill="#A4A3A4" transform="translate(508,272)"/>
<path d="M0 0 C2.475 0.495 2.475 0.495 5 1 C5.33 2.32 5.66 3.64 6 5 C3.03 4.505 3.03 4.505 0 4 C0 2.68 0 1.36 0 0 Z " fill="#6A6A69" transform="translate(503,192)"/>
<path d="M0 0 C2.31 0 4.62 0 7 0 C7.33 0.99 7.66 1.98 8 3 C5.03 3 2.06 3 -1 3 C-0.67 2.01 -0.34 1.02 0 0 Z " fill="#0D0C0C" transform="translate(383,383)"/>
<path d="M0 0 C0.33 0 0.66 0 1 0 C1.33 1.98 1.66 3.96 2 6 C-0.89234315 6.82638376 -2.88742431 7 -6 7 C-6 6.34 -6 5.68 -6 5 C-4.02 5 -2.04 5 0 5 C0 3.35 0 1.7 0 0 Z " fill="#3D3D3D" transform="translate(97,374)"/>
<path d="M0 0 C1.32 0 2.64 0 4 0 C4.33 1.65 4.66 3.3 5 5 C3.35 4.67 1.7 4.34 0 4 C0 2.68 0 1.36 0 0 Z " fill="#7E7D7C" transform="translate(468,338)"/>
<path d="M0 0 C0.66 0 1.32 0 2 0 C2.66 2.97 3.32 5.94 4 9 C3.34 9 2.68 9 2 9 C0.50178941 5.62902617 0 3.79557881 0 0 Z " fill="#EAEAE3" transform="translate(265,319)"/>
<path d="M0 0 C1.65 0 3.3 0 5 0 C5 1.32 5 2.64 5 4 C3.35 4 1.7 4 0 4 C0 2.68 0 1.36 0 0 Z " fill="#F0F0F0" transform="translate(333,176)"/>
<path d="M0 0 C1.65 0 3.3 0 5 0 C5 1.32 5 2.64 5 4 C3.35 4 1.7 4 0 4 C0 2.68 0 1.36 0 0 Z " fill="#878787" transform="translate(11,143)"/>
<path d="M0 0 C1.65 0 3.3 0 5 0 C5 1.32 5 2.64 5 4 C3.35 4 1.7 4 0 4 C0 2.68 0 1.36 0 0 Z " fill="#A3A2A3" transform="translate(186,6)"/>
<path d="M0 0 C1.65 0 3.3 0 5 0 C5 1.32 5 2.64 5 4 C3.35 4 1.7 4 0 4 C0 2.68 0 1.36 0 0 Z " fill="#BDBDBD" transform="translate(281,4)"/>
<path d="M0 0 C1.32 0.33 2.64 0.66 4 1 C4 2.32 4 3.64 4 5 C2.68 5 1.36 5 0 5 C0 3.35 0 1.7 0 0 Z " fill="#C0C0C0" transform="translate(266,458)"/>
<path d="M0 0 C0.99 0 1.98 0 3 0 C3.33 1.32 3.66 2.64 4 4 C2.68 4.33 1.36 4.66 0 5 C-0.33 4.01 -0.66 3.02 -1 2 C-0.67 1.34 -0.34 0.68 0 0 Z " fill="#B9B8B9" transform="translate(413,435)"/>
<path d="M0 0 C1.65 0 3.3 0 5 0 C5 1.32 5 2.64 5 4 C3.35 3.67 1.7 3.34 0 3 C0 2.01 0 1.02 0 0 Z " fill="#F7F6F6" transform="translate(91,374)"/>
<path d="M0 0 C0.66 0 1.32 0 2 0 C2 0.99 2 1.98 2 3 C1.34 3 0.68 3 0 3 C0 3.66 0 4.32 0 5 C-1.65 5.33 -3.3 5.66 -5 6 C-3.38405168 3.95880212 -1.7143618 1.95927063 0 0 Z " fill="#2D2D2E" transform="translate(315,296)"/>
<path d="M0 0 C0.66 0.33 1.32 0.66 2 1 C1.75 3.375 1.75 3.375 1 6 C-1.0625 7.3125 -1.0625 7.3125 -3 8 C-3.33 7.01 -3.66 6.02 -4 5 C-2.68 5 -1.36 5 0 5 C0 3.35 0 1.7 0 0 Z " fill="#0C0B0C" transform="translate(149,286)"/>
<path d="M0 0 C1.32 0 2.64 0 4 0 C4 1.65 4 3.3 4 5 C2.68 4.67 1.36 4.34 0 4 C0 2.68 0 1.36 0 0 Z " fill="#AAAAAA" transform="translate(457,201)"/>
<path d="M0 0 C1.32 0 2.64 0 4 0 C4 1.65 4 3.3 4 5 C2.68 4.67 1.36 4.34 0 4 C0 2.68 0 1.36 0 0 Z " fill="#535352" transform="translate(95,106)"/>
<path d="M0 0 C0 1.32 0 2.64 0 4 C-1.65 4 -3.3 4 -5 4 C-5 3.01 -5 2.02 -5 1 C-3 0 -3 0 0 0 Z " fill="#989798" transform="translate(163,557)"/>
<path d="M0 0 C0.66 0 1.32 0 2 0 C2.33 1.65 2.66 3.3 3 5 C1.68 5 0.36 5 -1 5 C-0.67 3.35 -0.34 1.7 0 0 Z " fill="#A9A8A9" transform="translate(299,487)"/>
<path d="M0 0 C0 1.32 0 2.64 0 4 C-1.65 4 -3.3 4 -5 4 C-5 3.01 -5 2.02 -5 1 C-3 0 -3 0 0 0 Z " fill="#F3F3F3" transform="translate(403,480)"/>
<path d="M0 0 C0.99 0.33 1.98 0.66 3 1 C3 2.32 3 3.64 3 5 C1.68 5 0.36 5 -1 5 C-0.67 3.35 -0.34 1.7 0 0 Z " fill="#929192" transform="translate(176,319)"/>
<path d="M0 0 C0.99 0 1.98 0 3 0 C3 1.65 3 3.3 3 5 C1.68 4.67 0.36 4.34 -1 4 C-0.67 2.68 -0.34 1.36 0 0 Z " fill="#7C7B7C" transform="translate(99,321)"/>
<path d="M0 0 C1.9375 0.3125 1.9375 0.3125 4 1 C4.33 1.99 4.66 2.98 5 4 C4.34 4 3.68 4 3 4 C2.67 4.66 2.34 5.32 2 6 C1.34 5.34 0.68 4.68 0 4 C0 2.68 0 1.36 0 0 Z " fill="#474747" transform="translate(223,276)"/>
<path d="M0 0 C1.32 0 2.64 0 4 0 C4 1.65 4 3.3 4 5 C3.01 5 2.02 5 1 5 C0.67 3.35 0.34 1.7 0 0 Z " fill="#C7C7C7" transform="translate(365,216)"/>
<path d="M0 0 C1.485 0.99 1.485 0.99 3 2 C2.67 3.65 2.34 5.3 2 7 C1.34 7 0.68 7 0 7 C0 4.69 0 2.38 0 0 Z " fill="#0C0B0C" transform="translate(551,428)"/>
<path d="M0 0 C0.99 0 1.98 0 3 0 C3 1.32 3 2.64 3 4 C4.65 4 6.3 4 8 4 C8 4.33 8 4.66 8 5 C5.69 5 3.38 5 1 5 C0.67 3.35 0.34 1.7 0 0 Z " fill="#0D0C0C" transform="translate(51,405)"/>
<path d="M0 0 C0 0.99 0 1.98 0 3 C-2.99531539 3.99843846 -4.17255732 4.00732761 -7.1875 3.5625 C-8.445625 3.376875 -9.70375 3.19125 -11 3 C-11 2.67 -11 2.34 -11 2 C-10.06027344 1.90912109 -10.06027344 1.90912109 -9.1015625 1.81640625 C-7.87566406 1.69072266 -7.87566406 1.69072266 -6.625 1.5625 C-5.81289062 1.48128906 -5.00078125 1.40007812 -4.1640625 1.31640625 C-1.95727195 1.10909886 -1.95727195 1.10909886 0 0 Z " fill="#B2B1B1" transform="translate(248,327)"/>
<path d="M0 0 C0.99 0.33 1.98 0.66 3 1 C2.34 2.32 1.68 3.64 1 5 C0.01 4.67 -0.98 4.34 -2 4 C-2 3.01 -2 2.02 -2 1 C-1.34 0.67 -0.68 0.34 0 0 Z " fill="#F5F5F5" transform="translate(295,312)"/>
<path d="M0 0 C-1.75 4.875 -1.75 4.875 -4 6 C-4 5.34 -4 4.68 -4 4 C-4.66 3.67 -5.32 3.34 -6 3 C-2.25 0 -2.25 0 0 0 Z " fill="#949394" transform="translate(324,285)"/>
<path d="M0 0 C0.99 0.33 1.98 0.66 3 1 C3 3.31 3 5.62 3 8 C2.67 7.01 2.34 6.02 2 5 C1.34 5 0.68 5 0 5 C0 3.35 0 1.7 0 0 Z " fill="#444344" transform="translate(276,172)"/>
<path d="M0 0 C2.475 0.495 2.475 0.495 5 1 C4.67 1.99 4.34 2.98 4 4 C2.68 3.67 1.36 3.34 0 3 C0 2.01 0 1.02 0 0 Z " fill="#D7D7D7" transform="translate(487,17)"/>
</svg>
